<svg xmlns="http://www.w3.org/2000/svg" xmlns:xlink="http://www.w3.org/1999/xlink" width="18" height="9" viewBox="0 0 18 9" fill="none"><defs><rect id="path_0" x="0" y="0" width="18" height="8.070000000000002" /></defs><g opacity="1" transform="translate(0 0)  rotate(0 9 4.035000000000001)"><mask id="bg-mask-0" fill="white"><use xlink:href="#path_0"></use></mask><g mask="url(#bg-mask-0)" ><path id="路径 1" fill-rule="evenodd" style="fill:#FFFFFF" transform="translate(0 -0.00027484126921034125)  rotate(0 9.002083767199387 4.0347120029318955)" opacity="1" d="M17.74,0.27C17.58,0.1 17.35,0 17.11,0C16.89,0.01 16.68,0.09 16.5,0.23C14.45,2.08 11.76,3.07 9,3C6.24,3.04 3.57,2.05 1.5,0.23C1.34,0.08 1.12,-0.01 0.9,0C0.4,0 0,0.4 0,0.9C0,1.13 0.1,1.35 0.27,1.5C1.09,2.26 2.01,2.91 3,3.42L1.12,5.67C0.81,6.05 0.85,6.6 1.21,6.93C1.59,7.24 2.15,7.2 2.48,6.84L4.72,4.14C5.09,4.29 5.47,4.41 5.85,4.5L5.4,7.02C5.31,7.5 5.64,7.97 6.12,8.06C6.6,8.14 7.07,7.82 7.15,7.34L7.6,4.77C8.05,4.77 8.5,4.77 8.95,4.77C9.4,4.77 9.85,4.77 10.31,4.77L10.76,7.29C10.84,7.77 11.31,8.1 11.79,8.01C12.27,7.92 12.6,7.46 12.51,6.98L12,4.5C12.36,4.41 12.77,4.32 13.14,4.19L15.39,6.89C15.73,7.19 16.24,7.19 16.58,6.9C16.93,6.6 16.99,6.09 16.74,5.72L14.91,3.42C15.91,2.92 16.84,2.27 17.66,1.5C17.86,1.36 17.98,1.14 18,0.89C18.02,0.65 17.93,0.41 17.75,0.24L17.74,0.27Z " /></g></g></svg>