<svg xmlns="http://www.w3.org/2000/svg" xmlns:xlink="http://www.w3.org/1999/xlink" width="18" height="18" viewBox="0 0 18 18" fill="none"><defs><rect id="path_0" x="0" y="0" width="18.000000000000007" height="17.985012489592005" /></defs><g opacity="1" transform="translate(0 0)  rotate(0 9.000000000000004 8.992506244796003)"><mask id="bg-mask-0" fill="white"><use xlink:href="#path_0"></use></mask><g mask="url(#bg-mask-0)" ><path id="分组 1" fill-rule="evenodd" style="fill:#FFFFFF" transform="translate(0 0)  rotate(0 4.046627810158204 8.992506244796003)" opacity="1" d="M0 2.7Z M0 5.4C0.01 6.88 1.21 8.09 2.7 8.09L5.4 8.09C6.88 8.09 8.09 6.88 8.09 5.4L8.09 2.7C8.09 1.21 6.88 0.01 5.4 0L2.7 0C1.21 0.01 0.01 1.21 0 2.7L0 5.4Z M6.2985 2.6985C6.2985 2.1985 5.8885 1.7985 5.3985 1.7985L2.6985 1.7985C2.1985 1.7985 1.7985 2.1985 1.7985 2.6985L1.7985 5.3985C1.7985 5.8885 2.1985 6.2985 2.6985 6.2985L5.3985 6.2985C5.8885 6.2985 6.2985 5.8885 6.2985 5.3985L6.2985 2.6985Z M2.7 9.89176C1.21 9.90176 0.01 11.1018 0 12.5918L0 15.2918C0.01 16.7718 1.21 17.9818 2.7 17.9818L5.4 17.9818C6.88 17.9818 8.09 16.7718 8.09 15.2918L8.09 12.5918C8.09 11.1018 6.88 9.90176 5.4 9.89176L2.7 9.89176Z M1.7985 15.2903Z M6.2985 12.5903Z M2.6985 16.1903L5.3985 16.1903C5.8885 16.1903 6.2985 15.7803 6.2985 15.2903L6.2985 12.5903C6.2985 12.0903 5.8885 11.6903 5.3985 11.6903L2.6985 11.6903C2.1985 11.6903 1.7985 12.0903 1.7985 12.5903L1.7985 15.2903C1.7985 15.7803 2.1985 16.1903 2.6985 16.1903Z " /><path id="路径 5" fill-rule="evenodd" style="fill:#FFFFFF" transform="translate(9.883671768716548 0.8911655239205466)  rotate(0 4.054712910717259 0.9073357250386569)" opacity="1" d="M0.01 0.91C-0.03 0.66 0.06 0.41 0.23 0.23C0.41 0.06 0.66 -0.03 0.91 0.01L7.2 0.01C7.45 -0.03 7.7 0.06 7.88 0.23C8.05 0.41 8.14 0.66 8.1 0.91C8.14 1.16 8.05 1.41 7.88 1.58C7.7 1.76 7.45 1.84 7.2 1.81L0.91 1.81C0.66 1.84 0.41 1.76 0.23 1.58C0.06 1.41 -0.03 1.16 0.01 0.91Z" /><path id="路径 6" fill-rule="evenodd" style="fill:#FFFFFF" transform="translate(9.883671768716548 5.387418646318548)  rotate(0 4.054712910717259 0.9073357250386569)" opacity="1" d="M0.23 1.58C0.06 1.41 -0.03 1.16 0.01 0.91C-0.03 0.66 0.06 0.41 0.23 0.23C0.41 0.06 0.66 -0.03 0.91 0.01L7.2 0.01C7.45 -0.03 7.7 0.06 7.88 0.23C8.05 0.41 8.14 0.66 8.1 0.91C8.14 1.16 8.05 1.41 7.88 1.58C7.7 1.76 7.45 1.84 7.2 1.81L0.91 1.81C0.66 1.84 0.41 1.76 0.23 1.58Z" /><path id="路径 7" fill-rule="evenodd" style="fill:#FFFFFF" transform="translate(9.883671768716548 10.782922393196147)  rotate(0 4.05471291071726 0.9073357250386596)" opacity="1" d="M7.88 0.23C8.05 0.41 8.14 0.66 8.1 0.91C8.14 1.16 8.05 1.41 7.88 1.58C7.7 1.76 7.45 1.84 7.2 1.81L0.91 1.81C0.66 1.84 0.41 1.76 0.23 1.58C0.06 1.41 -0.03 1.16 0.01 0.91C-0.03 0.66 0.06 0.41 0.23 0.23C0.41 0.06 0.66 -0.03 0.91 0.01L7.2 0.01C7.45 -0.03 7.7 0.06 7.88 0.23Z" /><path id="路径 8" fill-rule="evenodd" style="fill:#FFFFFF" transform="translate(9.883671768716546 15.279175515594149)  rotate(0 4.05471291071726 0.9073357250386556)" opacity="1" d="M0.91 1.81C0.66 1.84 0.41 1.76 0.23 1.58C0.06 1.41 -0.03 1.16 0.01 0.91C-0.03 0.66 0.06 0.41 0.23 0.23C0.41 0.06 0.66 -0.03 0.91 0.01L7.2 0.01C7.45 -0.03 7.7 0.06 7.88 0.23C8.05 0.41 8.14 0.66 8.1 0.91C8.14 1.16 8.05 1.41 7.88 1.58C7.7 1.76 7.45 1.84 7.2 1.81L0.91 1.81Z" /></g></g></svg>