<svg xmlns="http://www.w3.org/2000/svg" xmlns:xlink="http://www.w3.org/1999/xlink" width="18" height="17" viewBox="0 0 18 17" fill="none"><defs><rect id="path_0" x="0" y="0" width="18" height="16.2" /></defs><g opacity="1" transform="translate(0 0)  rotate(0 9 8.1)"><mask id="bg-mask-0" fill="white"><use xlink:href="#path_0"></use></mask><g mask="url(#bg-mask-0)" ><path id="分组 1" fill-rule="evenodd" style="fill:#FFFFFF" transform="translate(0 -0.00203281974591369)  rotate(0 9.028281535188496 8.101112570744306)" opacity="1" d="M0.93 1.72C0.38 1.91 0 2.43 0 3.02L0 14.94C0.01 15.07 0.03 15.19 0.08 15.31C0.16 15.62 0.37 15.87 0.65 16.01C0.93 16.16 1.26 16.18 1.55 16.07L6.4 14.47L11.35 16.13C11.63 16.22 11.93 16.22 12.21 16.13L17.16 14.48C17.71 14.29 18.07 13.77 18.06 13.19L18.06 1.26C18.06 1.14 18.04 1.01 18 0.89C17.92 0.58 17.7 0.31 17.41 0.17C17.12 0.02 16.78 0.01 16.48 0.14L11.72 1.73L6.75 0.07C6.47 -0.02 6.17 -0.02 5.88 0.07L0.93 1.72Z M5.41125 2.12828L1.81125 3.37828L1.81125 14.0683L5.41125 12.8683L5.41125 2.12828Z M7.21125 12.8683L10.8112 14.0683L10.8112 3.37828L7.21125 2.12828L7.21125 12.8683Z M12.6112 14.0683L16.2113 12.8683L16.2113 2.12828L12.6112 3.37828L12.6112 14.0683Z " /></g></g></svg>