<svg id="图层_1" data-name="图层 1" xmlns="http://www.w3.org/2000/svg" viewBox="0 0 32 32"><defs><style>.cls-1{fill:#457dff;}.cls-2{fill:#fff;}</style></defs><circle class="cls-1" cx="16" cy="16" r="16"/><path class="cls-2" d="M24.38,13.15H21.89V10.66a.74.74,0,0,0-.74-.74h-.87V7.34a.75.75,0,0,0-.75-.74H12.94a.74.74,0,0,0-.75.74V9.92h-.87a.75.75,0,0,0-.75.74v2.49H8.08a.75.75,0,0,0-.74.75v8.58a.74.74,0,0,0,.74.75h16.3a.75.75,0,0,0,.75-.75V13.9A.76.76,0,0,0,24.38,13.15Zm-12.19,6a.81.81,0,0,1-1.38.57.77.77,0,0,1-.24-.57V17.2a.81.81,0,0,1,1.62,0Zm3.23,0a.81.81,0,1,1-1.61,0V17.2a.81.81,0,1,1,1.61,0Zm3.24,0a.81.81,0,0,1-.81.81.78.78,0,0,1-.57-.24.77.77,0,0,1-.24-.57V17.2a.81.81,0,0,1,1.62,0Zm3.23,0a.81.81,0,1,1-1.61,0V17.2a.81.81,0,1,1,1.61,0Z"/></svg>