<svg id="图层_1" data-name="图层 1" xmlns="http://www.w3.org/2000/svg" viewBox="0 0 32 40.22"><defs><style>.cls-1{fill:#f56c6c;}.cls-2{fill:#fff;}.cls-3{fill:#ffc300;}</style></defs><path class="cls-1" d="M32,16a15.87,15.87,0,0,1-1.6,7h0l-2.84,4.08L17.4,39.49a1.71,1.71,0,0,1-2.8,0L4.42,27h0L1.61,23v0A16,16,0,1,1,32,16Z"/><path class="cls-2" d="M25.11,13.4H22.34V10.64a.83.83,0,0,0-.83-.83h-1V6.94a.83.83,0,0,0-.83-.83H12.37a.83.83,0,0,0-.83.83V9.81h-1a.83.83,0,0,0-.83.83V13.4H7a.83.83,0,0,0-.83.83v9.56a.83.83,0,0,0,.83.83H18.24a6.25,6.25,0,0,1-1.3-6.13V17.9a.9.9,0,0,1,.7-.88,6.27,6.27,0,0,1,5.23-2.83,6.17,6.17,0,0,1,3.07.81v-.77A.84.84,0,0,0,25.11,13.4ZM11.54,20.05a.9.9,0,0,1-.9.9.9.9,0,0,1-.9-.9V17.9a.9.9,0,0,1,1.8,0Zm3.6,0a.9.9,0,0,1-.9.9.9.9,0,0,1-.9-.9V17.9a.9.9,0,1,1,1.8,0Z"/><path class="cls-3" d="M22.87,15.36a5.08,5.08,0,1,0,5.07,5.07A5.07,5.07,0,0,0,22.87,15.36Zm0,8.71a.76.76,0,0,1-.77-.77.77.77,0,0,1,.77-.78.78.78,0,0,1,.78.78A.77.77,0,0,1,22.87,24.07Zm.78-2.87a.78.78,0,1,1-1.55,0V18a.77.77,0,0,1,1.32-.55.79.79,0,0,1,.23.55Z"/></svg>