<svg xmlns="http://www.w3.org/2000/svg" xmlns:xlink="http://www.w3.org/1999/xlink" width="18" height="18" viewBox="0 0 18 18" fill="none"><defs><rect id="path_0" x="0" y="0" width="18" height="18" /></defs><g opacity="1" transform="translate(0 0)  rotate(0 9 9)"><mask id="bg-mask-0" fill="white"><use xlink:href="#path_0"></use></mask><g mask="url(#bg-mask-0)" ><path id="分组 1" fill-rule="evenodd" style="fill:#FFFFFF" transform="translate(0 0)  rotate(0 9 9)" opacity="1" d="M18 9Z M9 18C13.97 18 18 13.97 18 9C18 4.03 13.97 0 9 0C4.03 0 0 4.03 0 9C0 13.97 4.03 18 9 18Z M2.4974 5.96C1.3174 8.48 1.6974 11.46 3.4774 13.61C6.7274 11.08 11.2874 11.08 14.5374 13.61C16.3174 11.46 16.6974 8.48 15.5174 5.95C14.3274 3.42 11.7874 1.81 8.9974 1.8C6.2074 1.81 3.6774 3.43 2.4974 5.96Z M13.1962 14.851C10.6962 13.051 7.32625 13.051 4.82625 14.851C7.32625 16.651 10.6962 16.651 13.1962 14.851Z " /><path id="分组 2" fill-rule="evenodd" style="fill:#FFFFFF" transform="translate(5.3999999999999995 3.6000000000000005)  rotate(0 3.5999999999999996 3.5999999999999996)" opacity="1" d="M7.2 3.6C7.2 1.61 5.59 0 3.6 0C1.61 0 0 1.61 0 3.6C0 5.59 1.61 7.2 3.6 7.2C5.59 7.2 7.2 5.59 7.2 3.6Z M1.8 3.6C1.8 4.59 2.61 5.4 3.6 5.4C4.59 5.4 5.4 4.59 5.4 3.6C5.4 2.61 4.59 1.8 3.6 1.8C2.61 1.8 1.8 2.61 1.8 3.6Z " /></g></g></svg>