<svg xmlns="http://www.w3.org/2000/svg" xmlns:xlink="http://www.w3.org/1999/xlink" width="18" height="18" viewBox="0 0 18 18" fill="none"><defs><rect id="path_0" x="0" y="0" width="18" height="17.988757026858213" /></defs><g opacity="1" transform="translate(0 0)  rotate(0 9 8.994378513429107)"><mask id="bg-mask-0" fill="white"><use xlink:href="#path_0"></use></mask><g mask="url(#bg-mask-0)" ><path id="分组 1" fill-rule="evenodd" style="fill:#FFFFFF" transform="translate(-1.0181190006653103e-10 -0.005621486570892786)  rotate(0 8.994390340388703 8.997200984838491)" opacity="1" d="M0 4.5Z M11.69 0.91L11.69 1.8L6.31 1.8L6.31 0.91C6.31 0.41 5.9 0 5.4 0C4.9 0 4.5 0.41 4.5 0.91L4.5 1.8L2.71 1.8C1.99 1.8 1.3 2.08 0.79 2.59C0.29 3.1 0 3.79 0 4.5L0 15.3C0 16.01 0.29 16.7 0.79 17.21C1.3 17.71 1.99 18 2.71 17.99L15.3 17.99C16.02 17.99 16.7 17.71 17.21 17.2C17.71 16.7 17.99 16.01 17.99 15.3L17.99 4.5C17.99 3.79 17.71 3.1 17.2 2.59C16.7 2.08 16.01 1.8 15.29 1.8L15.3 1.8L13.49 1.8L13.49 0.91C13.49 0.41 13.09 0.01 12.59 0.01C12.1 0.01 11.7 0.41 11.69 0.91Z M1.81012 15.2934Z M16.1901 4.50337Z M16.2001 15.2934L16.1901 4.50337C16.1901 4.00337 15.7901 3.60337 15.2901 3.60337L13.4901 3.60337L13.4901 4.50337C13.4901 4.74337 13.4001 4.97337 13.2401 5.13337C13.0701 5.30337 12.8401 5.40337 12.6001 5.40337C12.1001 5.40337 11.7001 5.00337 11.6901 4.50337L11.6901 3.60337L6.30012 3.60337L6.30012 4.50337C6.30012 4.82337 6.12012 5.12337 5.85012 5.28337C5.57012 5.44337 5.23012 5.44337 4.95012 5.28337C4.67012 5.12337 4.50012 4.82337 4.50012 4.50337L4.50012 3.60337L2.71012 3.60337C2.21012 3.60337 1.81012 4.00337 1.81012 4.50337L1.81012 15.2934C1.81012 15.7934 2.21012 16.1934 2.71012 16.1934L15.3001 16.1934C15.8001 16.1934 16.2001 15.7934 16.2001 15.2934Z " /><path id="分组 2" fill-rule="evenodd" style="fill:#FFFFFF" transform="translate(3.59775137972344 7.195502810743285)  rotate(0 5.396627133705666 2.698313554028731)" opacity="1" d="M0.9 0C0.58 0 0.28 0.17 0.12 0.45C-0.04 0.73 -0.04 1.07 0.12 1.35C0.28 1.63 0.58 1.8 0.9 1.8L9.89 1.8C10.22 1.8 10.51 1.63 10.67 1.35C10.83 1.07 10.83 0.73 10.67 0.45C10.51 0.17 10.22 0 9.89 0L0.9 0Z M6.3 3.59775C6.3 3.59775 6.3 3.59775 6.3 3.59775Z M6.3 3.59775C6.3 3.59775 6.3 3.59775 6.3 3.59775L6.31 3.59775L6.3 3.59775Z M0.9 3.59775C0.4 3.59775 5.12964e-08 3.99775 5.12964e-08 4.49775C5.12964e-08 4.99775 0.4 5.39775 0.9 5.39775L6.3 5.39775C6.62 5.39775 6.91 5.22775 7.08 4.94775C7.24 4.66775 7.24 4.32775 7.08 4.04775C6.91 3.76775 6.62 3.59775 6.3 3.59775L0.9 3.59775Z " /></g></g></svg>