<svg xmlns="http://www.w3.org/2000/svg" xmlns:xlink="http://www.w3.org/1999/xlink" width="18" height="18" viewBox="0 0 18 18" fill="none"><defs><rect id="path_0" x="0" y="0" width="18" height="18" /></defs><g opacity="1" transform="translate(0 0)  rotate(0 9 9)"><mask id="bg-mask-0" fill="white"><use xlink:href="#path_0"></use></mask><g mask="url(#bg-mask-0)" ><path id="分组 1" fill-rule="evenodd" style="fill:#FFFFFF" transform="translate(-0.000023668601020833892 -0.00002366860102133398)  rotate(0 9.000023668601024 9.000023668601024)" opacity="1" d="M15.3 7.2L14.4 7.2L14.4 2.7C14.4 1.98 14.12 1.29 13.61 0.79C13.11 0.28 12.42 0 11.7 0L2.7 0C1.98 0 1.29 0.28 0.79 0.79C0.28 1.29 0 1.98 0 2.7L0 15.3C0 16.02 0.28 16.71 0.79 17.21C1.29 17.72 1.98 18 2.7 18L15.3 18C16.02 18 16.71 17.72 17.21 17.21C17.72 16.71 18 16.02 18 15.3L18 9.9C18 9.18 17.72 8.49 17.21 7.99C16.71 7.48 16.02 7.2 15.3 7.2Z M12.6 2.70002Z M1.80002 15.3Z M1.80002 2.70002L1.80002 15.3C1.80002 15.8 2.20002 16.2 2.70002 16.2L12.6 16.2L12.6 2.70002C12.6 2.20002 12.2 1.80002 11.7 1.80002L2.70002 1.80002C2.20002 1.80002 1.80002 2.20002 1.80002 2.70002Z M16.2 9.90002Z M16.2 9.90002C16.2 9.40002 15.8 9.00002 15.3 9.00002L14.4 9.00002L14.4 16.2L15.3 16.2C15.8 16.2 16.2 15.8 16.2 15.3L16.2 13.05L16.2 9.90002Z " /><path id="分组 2" fill-rule="evenodd" style="fill:#FFFFFF" transform="translate(3.599999974335767 4.5)  rotate(0 3.6000000256642335 3.1500000000000012)" opacity="1" d="M0.9 0C0.58 0 0.28 0.17 0.12 0.45C-0.04 0.73 -0.04 1.07 0.12 1.35C0.28 1.63 0.58 1.8 0.9 1.8L6.3 1.8C6.62 1.8 6.92 1.63 7.08 1.35C7.24 1.07 7.24 0.73 7.08 0.45C6.92 0.17 6.62 0 6.3 0L0.9 0Z M0.9 4.5C0.58 4.5 0.28 4.67 0.12 4.95C-0.04 5.23 -0.04 5.57 0.12 5.85C0.28 6.13 0.58 6.3 0.9 6.3L6.3 6.3C6.62 6.3 6.92 6.13 7.08 5.85C7.24 5.57 7.24 5.23 7.08 4.95C6.92 4.67 6.62 4.5 6.3 4.5L0.9 4.5Z " /></g></g></svg>