<svg xmlns="http://www.w3.org/2000/svg" xmlns:xlink="http://www.w3.org/1999/xlink" width="18" height="18" viewBox="0 0 18 18" fill="none"><defs><rect id="path_0" x="0" y="0" width="18" height="18" /></defs><g opacity="1" transform="translate(0 0)  rotate(0 9 9)"><mask id="bg-mask-0" fill="white"><use xlink:href="#path_0"></use></mask><g mask="url(#bg-mask-0)" ><path id="分组 1" fill-rule="evenodd" style="fill:#FFFFFF" transform="translate(3.587386337823256 3.6166241218498363)  rotate(0 2.7022426174838836 2.6870778636117896)" opacity="1" d="M4.51183 0.891504C4.27183 0.891504 4.05183 0.981504 3.88183 1.1515L1.18183 3.8515C0.831834 4.2015 0.831834 4.7615 1.18183 5.1115C1.53183 5.4615 2.09183 5.4615 2.44183 5.1115L5.14183 2.4115C5.31183 2.2515 5.40183 2.0215 5.40183 1.7815C5.40183 1.5515 5.31183 1.3215 5.14183 1.1515C4.97183 0.981504 4.75183 0.891504 4.51183 0.891504Z M2.44 1.51L2.52 1.43C2.8 1.06 2.74 0.53 2.39 0.22C2.04 -0.09 1.51 -0.07 1.17 0.25L0.27 1.15L0.19 1.23C-0.11 1.62 -0.05 2.18 0.34 2.49C0.7 2.78 1.22 2.75 1.54 2.41L2.44 1.51Z " /><path id="分组 2" fill-rule="evenodd" style="fill:#FFFFFF" transform="translate(-0.00002366860102261025 -0.000023668601020980916)  rotate(0 9.000023668601024 9.000023668601024)" opacity="1" d="M15.3 5.4L15.3 2.7C15.3 1.98 15.02 1.29 14.51 0.79C14.01 0.28 13.32 0 12.6 0L2.7 0C1.98 0 1.29 0.28 0.79 0.79C0.28 1.29 0 1.98 0 2.7L0 13.5C0 14.22 0.28 14.91 0.79 15.41C1.29 15.92 1.98 16.2 2.7 16.2L10.96 16.2C11.34 17.28 12.36 18 13.5 18L15.3 18C16.02 18 16.71 17.72 17.21 17.21C17.72 16.71 18 16.02 18 15.3L18 8.1C18 7.38 17.72 6.69 17.21 6.19C16.71 5.68 16.02 5.4 15.3 5.4Z M13.5 2.92502Z M1.80002 2.92502L1.80002 13.275C1.80002 13.775 2.20002 14.175 2.70002 14.175L10.8 14.175L10.8 8.10502C10.8 7.38502 11.08 6.69502 11.59 6.18502C12.09 5.68502 12.78 5.39502 13.5 5.39502L13.5 2.92502C13.5 2.42502 13.1 2.02502 12.6 2.02502L2.70002 2.02502C2.20002 2.02502 1.80002 2.42502 1.80002 2.92502Z M12.6 15.3Z M16.2 8.10002Z M16.2 15.3L16.2 8.10002C16.2 7.60002 15.8 7.20002 15.3 7.20002L13.5 7.20002C13 7.20002 12.6 7.60002 12.6 8.10002L12.6 15.3C12.6 15.8 13 16.2 13.5 16.2L15.3 16.2C15.8 16.2 16.2 15.8 16.2 15.3Z " /></g></g></svg>