<svg id="图层_1" data-name="图层 1" xmlns="http://www.w3.org/2000/svg" viewBox="0 0 32 40.22"><defs><style>.cls-1{fill:#f56c6c;}.cls-2{fill:#fff;}.cls-3{fill:#ffc300;}</style></defs><path class="cls-1" d="M32,16a15.87,15.87,0,0,1-1.6,7h0l-2.84,4.08L17.4,39.49a1.71,1.71,0,0,1-2.8,0L4.42,27h0L1.61,23v0A16,16,0,1,1,32,16Z"/><path class="cls-2" d="M23,17H9a1,1,0,0,0-1,1v4.47a1,1,0,0,0,1,1H23a1,1,0,0,0,1-1V18A1,1,0,0,0,23,17Zm-12.52,4a.8.8,0,1,1,.8-.8A.79.79,0,0,1,10.47,21.08Zm2.43,0a.8.8,0,1,1,.79-.8A.8.8,0,0,1,12.9,21.08Z"/><path class="cls-3" d="M14.78,17.2l2.89,2.89a1.64,1.64,0,0,1-.21.25,2.07,2.07,0,1,1-2.92-2.93Z"/><path class="cls-3" d="M18.07,18.83l-2-2a2.05,2.05,0,0,1,1.42.6A2.1,2.1,0,0,1,18.07,18.83Z"/><path class="cls-3" d="M11.42,13.84l2,2a4.53,4.53,0,0,0-.81.65,1.38,1.38,0,0,1-1.95-1.95A7,7,0,0,1,11.42,13.84Z"/><path class="cls-3" d="M21.76,15.49a1.37,1.37,0,0,1-.4,1l-.09.08a1.37,1.37,0,0,1-1.46.19,1.18,1.18,0,0,1-.4-.27,4.79,4.79,0,0,0-4.89-1.18l-2.09-2.1a7.78,7.78,0,0,1,3-.87,8.16,8.16,0,0,1,1.71.06,7.5,7.5,0,0,1,4.26,2.14A1.36,1.36,0,0,1,21.76,15.49Z"/><path class="cls-3" d="M8,10.38l2,1.95-.24.24L9.25,13a1.38,1.38,0,0,1-2.08-1.82l.55-.55Z"/><path class="cls-3" d="M24.7,13.12A1.39,1.39,0,0,1,22.75,13l-.42-.42A8.94,8.94,0,0,0,14.75,10a10.65,10.65,0,0,0-1.36.3,9.11,9.11,0,0,0-2.56,1.26l-2-2a11.46,11.46,0,0,1,2.39-1.43q.6-.25,1.2-.45a11.71,11.71,0,0,1,11.83,2.88l.55.55A1.38,1.38,0,0,1,24.7,13.12Z"/><path class="cls-3" d="M21.51,20.36a1.35,1.35,0,0,1-1.91,0L16,16.81l-1.52-1.52-2.09-2.1L7.71,8.48A1.36,1.36,0,0,1,9.63,6.56l3.76,3.77,2,2,4.42,4.42,1.7,1.71A1.35,1.35,0,0,1,21.51,20.36Z"/></svg>