<svg xmlns="http://www.w3.org/2000/svg" xmlns:xlink="http://www.w3.org/1999/xlink" width="18" height="18" viewBox="0 0 18 18" fill="none"><defs><rect id="path_0" x="0" y="0" width="18" height="18" /></defs><g opacity="1" transform="translate(0 0)  rotate(0 9 9)"><mask id="bg-mask-0" fill="white"><use xlink:href="#path_0"></use></mask><g mask="url(#bg-mask-0)" ><path id="分组 1" fill-rule="evenodd" style="fill:#FFFFFF" transform="translate(0 0)  rotate(0 9 9)" opacity="1" d="M0 9C0 13.97 4.03 18 9 18C13.97 18 18 13.97 18 9C18 4.03 13.97 0 9 0C4.03 0 0 4.03 0 9Z M1.8 9C1.8 12.97 5.03 16.2 9 16.2C12.97 16.2 16.2 12.97 16.2 9C16.2 5.03 12.97 1.8 9 1.8C5.03 1.8 1.8 5.03 1.8 9Z M8.145 4.49998L8.145 9.11998C8.175 9.31998 8.275 9.49998 8.415 9.64998L11.115 12.35C11.465 12.65 11.985 12.65 12.335 12.35C12.495 12.18 12.595 11.95 12.595 11.71C12.595 11.47 12.495 11.24 12.335 11.07L9.905 8.62998L9.905 4.39998C9.845 3.93998 9.455 3.59998 9.005 3.59998C8.525 3.61998 8.145 4.01998 8.145 4.49998Z " /></g></g></svg>