<svg xmlns="http://www.w3.org/2000/svg" xmlns:xlink="http://www.w3.org/1999/xlink" width="18" height="18" viewBox="0 0 18 18" fill="none"><defs><rect id="path_0" x="0" y="0" width="18" height="18" /></defs><g opacity="1" transform="translate(0 0)  rotate(0 9 9)"><mask id="bg-mask-0" fill="white"><use xlink:href="#path_0"></use></mask><g mask="url(#bg-mask-0)" ><path id="分组 1" fill-rule="evenodd" style="fill:#FFFFFF" transform="translate(0 0)  rotate(0 9 9)" opacity="1" d="M8.10016 8.99625Z M8.70016 16.1963C12.4402 16.3463 15.6802 13.6163 16.1402 9.89625L9.00016 9.89625C8.50016 9.89625 8.10016 9.49625 8.10016 8.99625L8.10016 1.85625C4.39016 2.32625 1.65016 5.55625 1.81016 9.29625C1.96016 13.0363 4.96016 16.0363 8.70016 16.1963Z M9.9 0.9Z M18 9Z M9 0Z M18 9C18 8.5 17.6 8.1 17.1 8.1L9.9 8.1L9.9 0.9C9.9 0.4 9.5 0 9 0C4.03 0 0 4.03 0 9C0 13.97 4.03 18 9 18C13.97 18 18 13.97 18 9Z " /><path id="分组 2" fill-rule="evenodd" style="fill:#FFFFFF" transform="translate(10.88993081272061 0.44874452050748354)  rotate(0 3.318422167950815 3.314926246887307)" opacity="1" d="M0 5.72Z M0.9 6.62L5.74 6.62C5.84 6.63 5.94 6.63 6.04 6.62C6.5 6.45 6.74 5.95 6.59 5.49C5.69 2.97 3.71 0.97 1.19 0.06C0.92 -0.05 0.6 -0.01 0.36 0.16C0.13 0.34 0 0.61 0 0.9L0 5.72C0 6.21 0.4 6.62 0.9 6.62Z M1.77757 4.89876L4.32757 4.89876C3.71757 3.83876 2.84757 2.94876 1.79757 2.31876L1.77757 2.31876L1.77757 4.89876Z " /></g></g></svg>