<svg xmlns="http://www.w3.org/2000/svg" xmlns:xlink="http://www.w3.org/1999/xlink" width="18" height="17" viewBox="0 0 18 17" fill="none"><defs><rect id="path_0" x="0" y="0" width="18" height="16.23375" /></defs><g opacity="1" transform="translate(0 0)  rotate(0 9 8.116875)"><mask id="bg-mask-0" fill="white"><use xlink:href="#path_0"></use></mask><g mask="url(#bg-mask-0)" ><path id="分组 1" fill-rule="evenodd" style="fill:#FFFFFF" transform="translate(0 -0.000011639368694262024)  rotate(0 9.002336570488849 8.117309708876917)" opacity="1" d="M0 7.44L0 12.58C0.01 12.8 0.08 13.02 0.19 13.21L1.18 15.24L1.18 15.38C1.51 15.93 2.12 16.25 2.76 16.23L4.66 16.23C5.6 16.16 6.33 15.37 6.33 14.42L11.73 14.42L11.73 14.56C11.81 15.49 12.57 16.21 13.5 16.23L15.35 16.23C16 16.23 16.6 15.84 16.88 15.24L17.87 13.21L17.87 13.07C17.96 12.85 18 12.61 18 12.38L18 7.26C18.02 7 17.96 6.75 17.82 6.54L14.63 0.9L14.49 0.77C14.15 0.28 13.6 0 13.01 0L4.88 0C4.3 0.05 3.78 0.39 3.49 0.9L0.25 6.53L0.15 6.66C0.06 6.91 0.01 7.17 0 7.44Z M12.5125 12.6013C13.0225 12.6113 13.4425 12.9913 13.5025 13.5013L13.5025 14.4013L15.2525 14.4013L16.2425 12.3713L16.2425 9.47126L16.2425 7.44126L13.0525 1.81126L5.0625 1.81126L1.8225 7.44126L1.8225 12.3713L2.8125 14.4013L4.5225 14.4013L4.5225 13.5913C4.5325 13.0813 4.9125 12.6613 5.4225 12.6013L12.5125 12.6013Z " /><path id="路径 3" fill-rule="evenodd" style="fill:#FFFFFF" transform="translate(3.626202230761662 7.198257786094294)  rotate(0 5.3962977692383385 1.3417919124019853)" opacity="1" d="M10.29,1.68C10.51,1.57 10.67,1.38 10.75,1.16C10.82,0.93 10.8,0.68 10.7,0.46C10.45,0.04 9.92,-0.12 9.48,0.1L9.47,0.1C8.18,0.68 6.78,0.96 5.37,0.91C4.69,0.92 4.02,0.86 3.35,0.73L2.98,0.68L2.66,0.59L2.35,0.5L2.08,0.41L1.85,0.32L1.67,0.23L1.45,0.14L1.22,0.05C0.79,-0.1 0.31,0.09 0.1,0.5C-0.01,0.71 -0.03,0.96 0.05,1.19C0.12,1.42 0.29,1.61 0.5,1.71C2.03,2.4 3.7,2.73 5.37,2.68C7.07,2.72 8.75,2.38 10.29,1.68Z " /></g></g></svg>