<svg xmlns="http://www.w3.org/2000/svg" xmlns:xlink="http://www.w3.org/1999/xlink" width="18" height="19" viewBox="0 0 18 19" fill="none"><defs><rect id="path_0" x="0" y="0" width="18" height="18.044999999999998" /></defs><g opacity="1" transform="translate(0 0)  rotate(0 9 9.022499999999999)"><mask id="bg-mask-0" fill="white"><use xlink:href="#path_0"></use></mask><g mask="url(#bg-mask-0)" ><path id="分组 1" fill-rule="evenodd" style="fill:#FFFFFF" transform="translate(-0.007529604019946921 -0.3331648316530399)  rotate(0 9.017425191489284 9.189082415826519)" opacity="1" d="M17.74 16.83L14.41 13.47C15.55 12.04 16.17 10.26 16.16 8.43C16.29 5.46 14.78 2.66 12.23 1.14C9.68 -0.38 6.49 -0.38 3.94 1.14C1.39 2.66 -0.12 5.46 0.01 8.43C0.02 12.9 3.64 16.52 8.11 16.53C9.94 16.52 11.71 15.91 13.15 14.78L16.51 18.11C16.67 18.28 16.9 18.38 17.14 18.38C17.38 18.38 17.6 18.28 17.77 18.11C18.12 17.75 18.12 17.17 17.77 16.8L17.74 16.83Z M14.4075 8.43316C14.4075 4.95317 11.5875 2.13316 8.10753 2.13316C4.62753 2.13316 1.80753 4.95317 1.80753 8.43316C1.80753 11.9132 4.62753 14.7332 8.10753 14.7332C11.5875 14.7232 14.3975 11.9132 14.4075 8.43316Z " /></g></g></svg>