<svg xmlns="http://www.w3.org/2000/svg" xmlns:xlink="http://www.w3.org/1999/xlink" width="18" height="18" viewBox="0 0 18 18" fill="none"><defs><rect id="path_0" x="0" y="0" width="18" height="18" /></defs><g opacity="1" transform="translate(0 0)  rotate(0 9 9)"><mask id="bg-mask-0" fill="white"><use xlink:href="#path_0"></use></mask><g mask="url(#bg-mask-0)" ><path id="路径 1" fill-rule="evenodd" style="fill:#FFFFFF" transform="translate(4.13591627294216 4.4787829641802)  rotate(0 4.920911515792855 2.297928849306837)" opacity="1" d="M0.26 3.99C-0.09 3.64 -0.09 3.07 0.26 2.72L2.74 0.3C2.98 0.06 3.33 -0.05 3.67 0.02C3.88 0.05 4.07 0.16 4.2 0.34L6.33 2.43L8.24 0.52L8.24 0.5C8.45 0.24 8.8 0.11 9.14 0.19C9.48 0.27 9.74 0.53 9.82 0.86C9.9 1.2 9.78 1.55 9.51 1.76L6.97 4.32C6.88 4.41 6.77 4.48 6.65 4.52C6.33 4.66 5.94 4.6 5.69 4.35L3.44 2.1L1.55 3.99C1.19 4.34 0.62 4.34 0.26 3.99Z" /><path id="分组 1" fill-rule="evenodd" style="fill:#FFFFFF" transform="translate(-1.0187473868972482e-10 -0.000023470908032170482)  rotate(0 9.000011834351449 9.00004979551862)" opacity="1" d="M0 2.7Z M17.22 0.79C16.71 0.28 16.03 0 15.31 0L2.71 0C1.99 0 1.3 0.28 0.79 0.79C0.29 1.29 0 1.98 0 2.7L0 11.7C0 13.19 1.21 14.4 2.7 14.4L6.38 14.4L5.95 15.96C5.32 16.06 4.69 16.19 4.07 16.35C3.67 16.46 3.42 16.85 3.47 17.26C3.52 17.68 3.87 17.99 4.29 18C5.84 17.69 7.42 17.54 9 17.55C10.59 17.54 12.18 17.69 13.74 18C13.96 18 14.17 17.92 14.33 17.76C14.49 17.6 14.58 17.39 14.58 17.17C14.6 16.78 14.33 16.43 13.95 16.35C13.28 16.17 12.6 16.03 11.91 15.94L11.5 14.4L15.3 14.4C16.02 14.4 16.71 14.12 17.21 13.61C17.72 13.11 18 12.42 18 11.7L18 2.7C18 1.98 17.72 1.3 17.22 0.79Z M9.645 14.3438L8.245 14.3438L7.875 15.7538C8.235 15.7538 8.665 15.7538 8.995 15.7538L10.015 15.7538L9.645 14.3438Z M1.81125 11.6775Z M16.2113 2.67752Z M16.2113 11.6775L16.2113 2.67752C16.2113 2.17752 15.8112 1.77752 15.3112 1.77752L2.71125 1.77752C2.21125 1.77752 1.81125 2.17752 1.81125 2.67752L1.81125 11.6775C1.81125 12.1775 2.21125 12.5775 2.71125 12.5775L15.3112 12.5775C15.8112 12.5775 16.2113 12.1775 16.2113 11.6775Z " /></g></g></svg>