<svg xmlns="http://www.w3.org/2000/svg" xmlns:xlink="http://www.w3.org/1999/xlink" width="18" height="18" viewBox="0 0 18 18" fill="none"><defs><rect id="path_0" x="0" y="0" width="18" height="18" /></defs><g opacity="1" transform="translate(0 0)  rotate(0 9 9)"><mask id="bg-mask-0" fill="white"><use xlink:href="#path_0"></use></mask><g mask="url(#bg-mask-0)" ><path id="路径 1" fill-rule="evenodd" style="fill:#FFFFFF" transform="translate(-0.000042195793869981077 12.569957804206124)  rotate(0 2.700021097896936 2.7000210978969386)" opacity="1" d="M2.7,5.4C4.19,5.4 5.4,4.19 5.4,2.7C5.4,1.21 4.19,0 2.7,0C1.98,0 1.29,0.28 0.79,0.79C0.28,1.29 0,1.98 0,2.7C0,4.19 1.21,5.4 2.7,5.4Z " /><path id="路径 2" fill-rule="evenodd" style="fill:#FFFFFF" transform="translate(0 6.299988585336227)  rotate(0 5.850005707331887 5.850005688705436)" opacity="1" d="M1.8 3.6C0.81 3.6 0 2.79 0 1.8C0 0.81 0.81 0 1.8 0C4.43 0 6.95 1.04 8.8 2.9C10.66 4.75 11.7 7.27 11.7 9.9C11.7 10.89 10.89 11.7 9.9 11.7C8.91 11.7 8.1 10.89 8.1 9.9C8.1 6.42 5.28 3.6 1.8 3.6Z" /><path id="路径 3" fill-rule="evenodd" style="fill:#FFFFFF" transform="translate(-0.0033797260054589328 0)  rotate(0 9.001689863002731 9.002027923747884)" opacity="1" d="M2.7,0L1.68,0C0.69,0.07 -0.06,0.93 0,1.92C0.08,2.91 0.93,3.66 1.92,3.6L2.7,3.6C9.16,3.6 14.4,8.84 14.4,15.3L14.4,16.08C14.34,17.07 15.09,17.93 16.08,18C17.08,18.07 17.94,17.31 18,16.32L18,15.3C18,6.86 11.15,0 2.7,0Z " /></g></g></svg>