<svg xmlns="http://www.w3.org/2000/svg" xmlns:xlink="http://www.w3.org/1999/xlink" width="18" height="11" viewBox="0 0 18 11" fill="none"><defs><rect id="path_0" x="0" y="0" width="18" height="10.350000000000007" /></defs><g opacity="1" transform="translate(0 0)  rotate(0 9 5.175000000000003)"><mask id="bg-mask-0" fill="white"><use xlink:href="#path_0"></use></mask><g mask="url(#bg-mask-0)" ><path id="路径 1" fill-rule="evenodd" style="fill:#FFFFFF" transform="translate(-0.0028955562395929814 -0.0028955562396109553)  rotate(0 9.002306046140397 5.167921893198559)" opacity="1" d="M1.3 0C1.66 0 2 0.15 2.25 0.41L9 7.16L15.75 0.41C16.25 -0.11 17.07 -0.14 17.6 0.34C17.86 0.59 18 0.94 18 1.3C18 1.66 17.86 2 17.6 2.25L9.95 9.95C9.42 10.47 8.57 10.47 8.04 9.95L0.41 2.25C-0.11 1.76 -0.14 0.94 0.34 0.41C0.59 0.15 0.94 0 1.3 0Z" /></g></g></svg>