<svg xmlns="http://www.w3.org/2000/svg" xmlns:xlink="http://www.w3.org/1999/xlink" width="18" height="12" viewBox="0 0 18 12" fill="none"><defs><rect id="path_0" x="0" y="0" width="18" height="12" /></defs><g opacity="1" transform="translate(0 0)  rotate(0 9 6)"><mask id="bg-mask-0" fill="white"><use xlink:href="#path_0"></use></mask><g mask="url(#bg-mask-0)" ><path id="路径 1" fill-rule="evenodd" style="fill:#FFFFFF" transform="translate(-0.004241576571529883 -0.000012485604341929026)  rotate(0 9.002500333459874 5.994162343574293)" opacity="1" d="M8.98 11.99C8.34 11.99 7.73 11.72 7.3 11.24L0.68 4.24C-0.23 3.25 -0.23 1.73 0.68 0.74C1.11 0.27 1.72 0 2.36 0L15.64 0C16.28 0.01 16.89 0.28 17.34 0.74C17.78 1.2 18.02 1.82 18 2.46C18.01 3.12 17.76 3.75 17.32 4.24L10.66 11.24C10.24 11.72 9.63 11.99 8.98 11.99Z" /></g></g></svg>