<svg xmlns="http://www.w3.org/2000/svg" xmlns:xlink="http://www.w3.org/1999/xlink" width="18" height="20" viewBox="0 0 18 20" fill="none"><defs><rect id="path_0" x="0" y="0" width="18" height="19.125" /></defs><g opacity="1" transform="translate(0 0)  rotate(0 9 9.5625)"><mask id="bg-mask-0" fill="white"><use xlink:href="#path_0"></use></mask><g mask="url(#bg-mask-0)" ><path id="分组 1" fill-rule="evenodd" style="fill:#FFFFFF" transform="translate(0 0)  rotate(0 9 9.00018412335412)" opacity="1" d="M12.1 16.15L12.05 16.03L12.01 15.95L11.96 15.77L11.9 15.55C11.81 15.18 11.76 14.78 11.72 14.4L15.3 14.4C16.79 14.4 18 13.18 18 11.7L18 2.7C18 1.22 16.79 0 15.3 0L2.7 0C1.21 0 0 1.22 0 2.7L0 11.7C0 13.18 1.21 14.4 2.7 14.4L6.28 14.4C6.26 14.95 6.15 15.5 5.96 16.03L5.91 16.15L5.86 16.26L5.82 16.31L5.78 16.37C5.46 16.61 5.32 17.02 5.46 17.39C5.58 17.76 5.94 18.01 6.33 18L11.67 18C12.06 18.01 12.42 17.76 12.54 17.39C12.68 17.02 12.54 16.61 12.22 16.37L12.18 16.31L12.15 16.26L12.1 16.15Z M8.0685 14.3996C8.0485 14.9496 7.9785 15.4896 7.8485 16.0196L7.7985 16.1996L10.2085 16.1996C10.0685 15.7096 9.9785 15.1896 9.9485 14.6696L9.9285 14.3996L8.0685 14.3996Z M1.8 10.7997L1.8 11.6997C1.8 12.1897 2.2 12.5997 2.7 12.5997L15.3 12.5997C15.79 12.5997 16.2 12.1897 16.2 11.6997L16.2 10.7997L1.8 10.7997Z M16.2 2.69994C16.2 2.20994 15.79 1.79994 15.3 1.79994L2.7 1.79994C2.2 1.79994 1.8 2.20994 1.8 2.69994L1.8 8.99994L16.2 8.99994L16.2 2.69994Z " /></g></g></svg>