<svg id="图层_1" data-name="图层 1" xmlns="http://www.w3.org/2000/svg" xmlns:xlink="http://www.w3.org/1999/xlink" viewBox="0 0 60 60"><defs><style>.cls-1{fill:url(#未命名的渐变_10);}.cls-2{fill:#fff;}</style><linearGradient id="未命名的渐变_10" x1="45" y1="55.99" x2="15" y2="4.01" gradientUnits="userSpaceOnUse"><stop offset="0" stop-color="#7e73ff"/><stop offset="1" stop-color="#afb6fa"/></linearGradient></defs><circle class="cls-1" cx="30" cy="30" r="30"/><path class="cls-2" d="M22.35,16.5c0,.15,0,.3,0,.45a3.8,3.8,0,0,0,3.81,3.79h7.72A3.81,3.81,0,0,0,37.67,17a3.4,3.4,0,0,0,0-.45H43.5A1.61,1.61,0,0,1,45,18V45a1.61,1.61,0,0,1-1.5,1.5h-27A1.61,1.61,0,0,1,15,45V18a1.61,1.61,0,0,1,1.5-1.5ZM36.17,33.75H23.1a1.5,1.5,0,1,0,0,3H36.17a1.5,1.5,0,1,0,0-3Zm0-8.25H23.1a1.5,1.5,0,1,0,0,3H36.17a1.5,1.5,0,1,0,0-3Zm-2.61-12A2.46,2.46,0,0,1,36,15.94v.37a2.46,2.46,0,0,1-2.44,2.44H26.44A2.45,2.45,0,0,1,24,16.31v-.37a2.45,2.45,0,0,1,2.44-2.44Z"/></svg>