<svg id="图层_1" data-name="图层 1" xmlns="http://www.w3.org/2000/svg" xmlns:xlink="http://www.w3.org/1999/xlink" viewBox="0 0 60 60"><defs><style>.cls-1{fill:url(#未命名的渐变_4);}.cls-2{fill:#fff;}</style><linearGradient id="未命名的渐变_4" x1="45" y1="55.99" x2="15" y2="4.01" gradientUnits="userSpaceOnUse"><stop offset="0" stop-color="#04d9d5"/><stop offset="1" stop-color="#3df2dd"/></linearGradient></defs><circle class="cls-1" cx="30" cy="30" r="30"/><path class="cls-2" d="M39.87,33.75h3.72a.94.94,0,0,1,.94.94.91.91,0,0,1-.21.59L36.6,44.66a.94.94,0,0,1-.73.34h-.25a.52.52,0,0,1-.52-.52.39.39,0,0,1,0-.15l2-6.83H34.37a.94.94,0,0,1-.94-.94.93.93,0,0,1,0-.29l3.09-9.38a.93.93,0,0,1,.89-.64H41a.94.94,0,0,1,.94.94.93.93,0,0,1,0,.29Zm-6.19,9.37H17.34a1.87,1.87,0,0,1-1.87-1.87V16.88A1.88,1.88,0,0,1,17.34,15h22.5a1.88,1.88,0,0,1,1.88,1.88v7.5H37a1.86,1.86,0,0,0-1.77,1.26L31.32,36.89a1.87,1.87,0,0,0,1.77,2.48h1.74l-1.15,3.75Zm-13-22.07a1.09,1.09,0,0,0,0,2.18h9.51a1.09,1.09,0,0,0,0-2.18Zm-.12,6.86a1.1,1.1,0,0,0,0,2.18H26.2a1.1,1.1,0,0,0,0-2.18Z"/></svg>