<svg id="图层_1" data-name="图层 1" xmlns="http://www.w3.org/2000/svg" xmlns:xlink="http://www.w3.org/1999/xlink" viewBox="0 0 60 60"><defs><style>.cls-1{fill:url(#未命名的渐变_8);}.cls-2{fill:#fff;}</style><linearGradient id="未命名的渐变_8" x1="45" y1="55.99" x2="15" y2="4.01" gradientUnits="userSpaceOnUse"><stop offset="0" stop-color="#fcb243"/><stop offset="1" stop-color="#ffc990"/></linearGradient></defs><circle class="cls-1" cx="30" cy="30" r="30"/><path class="cls-2" d="M34.91,15.49V45.9H16.57a1.57,1.57,0,0,1-1.66-1.67V20.16a1.62,1.62,0,0,1,1.33-1.67l16.67-4.17A1.83,1.83,0,0,1,34.91,15.49Zm9,17.84a1.61,1.61,0,0,1,1,1.5v9.4a1.58,1.58,0,0,1-1.67,1.67H36.57V30.49l7.34,2.83ZM21.57,32.16a1.57,1.57,0,0,0-1.66,1.67,1.76,1.76,0,0,0,1.5,1.66h6.83a1.67,1.67,0,1,0,0-3.33Zm0-8.34a1.57,1.57,0,0,0-1.66,1.67,1.77,1.77,0,0,0,1.5,1.67h6.83a1.67,1.67,0,1,0,0-3.34Z"/></svg>