<svg id="图层_1" data-name="图层 1" xmlns="http://www.w3.org/2000/svg" xmlns:xlink="http://www.w3.org/1999/xlink" viewBox="0 0 60 60"><defs><style>.cls-1{fill:url(#未命名的渐变_13);}.cls-2{fill:#fff;}.cls-3{fill:none;}</style><linearGradient id="未命名的渐变_13" x1="45" y1="55.99" x2="15" y2="4.01" gradientUnits="userSpaceOnUse"><stop offset="0" stop-color="#2cbdf2"/><stop offset="1" stop-color="#85e9ff"/></linearGradient></defs><circle class="cls-1" cx="30" cy="30" r="30"/><path class="cls-2" d="M26.74,41.67H14.07a1.17,1.17,0,0,1-.79-.31,1,1,0,0,1-.24-1l5.25-21.32a1.1,1.1,0,0,1,1.09-.73h8.45a1.16,1.16,0,0,1,.73.26.73.73,0,0,1,.28.6L28,40.51a1.22,1.22,0,0,1-1.23,1.16Z"/><path class="cls-2" d="M42.34,26.62H32.52a1,1,0,0,1-1.1-.91l-.27-6.52a.76.76,0,0,1,.29-.6,1.14,1.14,0,0,1,.73-.26h8.45a1.08,1.08,0,0,1,1.08.73l1.62,6.53a.76.76,0,0,1-.22.74,1.07,1.07,0,0,1-.76.29Z"/><path class="cls-2" d="M45.93,41.67H33.25A1.21,1.21,0,0,1,32,40.51l-.41-10a.88.88,0,0,1,.34-.74,1.13,1.13,0,0,1,.75-.27H43.28a1.25,1.25,0,0,1,1.21.89l2.47,10a1,1,0,0,1-.24,1,1.17,1.17,0,0,1-.79.31Z"/><rect class="cls-3" x="14.47" y="18.2" width="30" height="20.61"/></svg>