<svg id="图层_1" data-name="图层 1" xmlns="http://www.w3.org/2000/svg" viewBox="0 0 24 24"><defs><style>.cls-1{fill:#457dff;}.cls-2{fill:#fff;}</style></defs><path class="cls-1" d="M8.18,0h7.64Q24,0,24,8.18v7.64Q24,24,15.82,24H8.18Q0,24,0,15.82V8.18Q0,0,8.18,0Z"/><path class="cls-2" d="M12.24,4.72l5.43,3.13a.55.55,0,0,1,.27.47v6.27a.55.55,0,0,1-.27.47l-5.43,3.13a.52.52,0,0,1-.54,0L6.27,15.06A.55.55,0,0,1,6,14.59V8.32a.55.55,0,0,1,.27-.47L11.7,4.72a.52.52,0,0,1,.54,0Zm.33,4.13a.32.32,0,0,0-.39.1L10,11.61a.29.29,0,0,0,0,.33.34.34,0,0,0,.3.18h.88v1.6a.33.33,0,0,0,.24.3h.1a.33.33,0,0,0,.28-.12l2.15-2.71a.33.33,0,0,0,0-.33.35.35,0,0,0-.31-.18h-1l.18-1.52a.31.31,0,0,0-.22-.32Z"/></svg>