<svg id="图层_1" data-name="图层 1" xmlns="http://www.w3.org/2000/svg" viewBox="0 0 24 24"><defs><style>.cls-1{fill:#457dff;}.cls-2{fill:#fff;}</style></defs><path class="cls-1" d="M8.18,0h7.64Q24,0,24,8.18v7.64Q24,24,15.82,24H8.18Q0,24,0,15.82V8.18Q0,0,8.18,0Z"/><path class="cls-2" d="M17.61,14.81a.93.93,0,0,1,.94.93v1.87a.94.94,0,0,1-.94.94H6.39a.94.94,0,0,1-.94-.94h0V15.74a.93.93,0,0,1,.94-.93Zm-.47,1.87H13.4a.45.45,0,0,0-.47.46.47.47,0,0,0,.39.46h3.82a.47.47,0,0,0,.47-.47.46.46,0,0,0-.47-.46Zm.47-6.55a.94.94,0,0,1,.94.93v1.87a.94.94,0,0,1-.94.94H6.39a.94.94,0,0,1-.94-.93V11.06a.94.94,0,0,1,.94-.93ZM7.79,12H6.86a.47.47,0,0,0-.09.93h1a.47.47,0,1,0,0-.94Zm4.68,0H9.66a.47.47,0,0,0-.47.47.48.48,0,0,0,.39.46h2.89a.47.47,0,0,0,0-.94Zm5.14-6.55a.94.94,0,0,1,.94.94h0V8.26a.93.93,0,0,1-.94.93H6.39a.93.93,0,0,1-.94-.93V6.39a.94.94,0,0,1,.94-.94ZM6.86,7.32a.47.47,0,0,0,0,.94.47.47,0,0,0,0-.94Zm1.87,0a.47.47,0,0,0,0,.94.47.47,0,0,0,0-.94Z"/></svg>