<svg xmlns="http://www.w3.org/2000/svg" xmlns:xlink="http://www.w3.org/1999/xlink" viewBox="0 0 26.37 17.73"><defs><style>.cls-1{stroke:#a9e2ff;stroke-miterlimit:10;stroke-width:0.5px;fill:url(#未命名的渐变_16);}.cls-2{fill:url(#未命名的渐变_19);}.cls-3{fill:url(#未命名的渐变_19-2);}.cls-4{fill:url(#未命名的渐变_19-3);}.cls-5{fill:url(#未命名的渐变_19-4);}.cls-6{fill:url(#未命名的渐变_19-5);}.cls-7{fill:url(#未命名的渐变_22);}</style><linearGradient id="未命名的渐变_16" x1="13.18" y1="17.48" x2="13.18" y2="0.25" gradientUnits="userSpaceOnUse"><stop offset="0" stop-color="#6db8f6"/><stop offset="0.06" stop-color="#69b0e9" stop-opacity="0.86"/><stop offset="0.15" stop-color="#63a4d6" stop-opacity="0.66"/><stop offset="0.25" stop-color="#5e9ac6" stop-opacity="0.48"/><stop offset="0.35" stop-color="#5a91b8" stop-opacity="0.33"/><stop offset="0.46" stop-color="#568aad" stop-opacity="0.21"/><stop offset="0.57" stop-color="#5385a4" stop-opacity="0.12"/><stop offset="0.69" stop-color="#52819e" stop-opacity="0.05"/><stop offset="0.83" stop-color="#507f9a" stop-opacity="0.01"/><stop offset="1" stop-color="#507e99" stop-opacity="0"/></linearGradient><linearGradient id="未命名的渐变_19" x1="19.64" y1="3.32" x2="19.64" y2="17.48" gradientUnits="userSpaceOnUse"><stop offset="0" stop-color="#6db8f6"/><stop offset="0.41" stop-color="#609fce" stop-opacity="0.57"/><stop offset="0.82" stop-color="#5587a8" stop-opacity="0.16"/><stop offset="1" stop-color="#507e99" stop-opacity="0"/></linearGradient><linearGradient id="未命名的渐变_19-2" x1="16.46" y1="9.48" x2="16.46" y2="17.48" xlink:href="#未命名的渐变_19"/><linearGradient id="未命名的渐变_19-3" x1="13.27" y1="5.72" x2="13.27" y2="17.48" xlink:href="#未命名的渐变_19"/><linearGradient id="未命名的渐变_19-4" x1="10.08" y1="2.33" x2="10.08" y2="17.48" xlink:href="#未命名的渐变_19"/><linearGradient id="未命名的渐变_19-5" x1="6.89" y1="8.14" x2="6.89" y2="17.48" xlink:href="#未命名的渐变_19"/><linearGradient id="未命名的渐变_22" x1="22.06" y1="4.89" x2="22.06" y2="17.48" gradientUnits="userSpaceOnUse"><stop offset="0" stop-color="#6db8f6"/><stop offset="0.09" stop-color="#6cb6f3" stop-opacity="0.97"/><stop offset="0.22" stop-color="#6ab2ec" stop-opacity="0.9"/><stop offset="0.37" stop-color="#66abe1" stop-opacity="0.77"/><stop offset="0.54" stop-color="#61a1d1" stop-opacity="0.6"/><stop offset="0.73" stop-color="#5b94bc" stop-opacity="0.38"/><stop offset="0.92" stop-color="#5385a4" stop-opacity="0.11"/><stop offset="1" stop-color="#507e99" stop-opacity="0"/></linearGradient></defs><title>资源 11</title><g id="图层_2" data-name="图层 2"><g id="图层_1-2" data-name="图层 1"><path class="cls-1" d="M26.12,1.91V15.82a1.66,1.66,0,0,1-1.66,1.66H1.91A1.66,1.66,0,0,1,.47,15L7.13,3.22a5.92,5.92,0,0,1,5.12-3H24.46A1.66,1.66,0,0,1,26.12,1.91Z"/><path class="cls-2" d="M19,3.32h1.22A.64.64,0,0,1,20.9,4V17.48a0,0,0,0,1,0,0H18.39a0,0,0,0,1,0,0V4A.64.64,0,0,1,19,3.32Z"/><path class="cls-3" d="M15.84,9.48h1.22a.64.64,0,0,1,.64.64v7.36a0,0,0,0,1,0,0H15.2a0,0,0,0,1,0,0V10.12A.64.64,0,0,1,15.84,9.48Z"/><path class="cls-4" d="M12.65,5.72h1.22a.64.64,0,0,1,.64.64V17.48a0,0,0,0,1,0,0H12a0,0,0,0,1,0,0V6.37a.64.64,0,0,1,.64-.64Z"/><path class="cls-5" d="M9.46,2.33h1.22a.64.64,0,0,1,.64.64V17.48a0,0,0,0,1,0,0H8.82a0,0,0,0,1,0,0V3A.64.64,0,0,1,9.46,2.33Z"/><path class="cls-6" d="M6.27,8.14H7.5a.64.64,0,0,1,.64.64v8.7a0,0,0,0,1,0,0H5.63a0,0,0,0,1,0,0V8.79A.64.64,0,0,1,6.27,8.14Z"/><path class="cls-7" d="M21.9,4.89h.31a.33.33,0,0,1,.33.33V17.48a0,0,0,0,1,0,0h-1a0,0,0,0,1,0,0V5.22A.33.33,0,0,1,21.9,4.89Z"/></g></g></svg>