<svg xmlns="http://www.w3.org/2000/svg" xmlns:xlink="http://www.w3.org/1999/xlink" viewBox="0 0 667 56"><defs><style>.cls-1{fill:url(#未命名的渐变_324);}.cls-2{stroke-miterlimit:10;fill:url(#未命名的渐变_115);stroke:url(#未命名的渐变_129);}.cls-3{fill:url(#未命名的渐变_183);}.cls-4{fill:url(#未命名的渐变_186);}</style><linearGradient id="未命名的渐变_324" y1="28" x2="667" y2="28" gradientUnits="userSpaceOnUse"><stop offset="0" stop-color="#608ad5" stop-opacity="0"/><stop offset="0.05" stop-color="#418ce5" stop-opacity="0.08"/><stop offset="0.11" stop-color="#278ef3" stop-opacity="0.15"/><stop offset="0.18" stop-color="#1790fb" stop-opacity="0.19"/><stop offset="0.26" stop-color="#1290fe" stop-opacity="0.2"/><stop offset="0.54" stop-color="#3494f1" stop-opacity="0.14"/><stop offset="1" stop-color="#809ed3" stop-opacity="0"/></linearGradient><linearGradient id="未命名的渐变_115" x1="59.46" y1="28" x2="273.54" y2="28" gradientUnits="userSpaceOnUse"><stop offset="0" stop-color="#608ad5" stop-opacity="0"/><stop offset="0.05" stop-color="#5d8bd7" stop-opacity="0.05"/><stop offset="0.28" stop-color="#4d8edd" stop-opacity="0.29"/><stop offset="0.46" stop-color="#448fe1" stop-opacity="0.44"/><stop offset="0.55" stop-color="#4090e3" stop-opacity="0.5"/><stop offset="0.63" stop-color="#4792e1" stop-opacity="0.44"/><stop offset="0.77" stop-color="#5a96dc" stop-opacity="0.3"/><stop offset="0.96" stop-color="#799cd5" stop-opacity="0.06"/><stop offset="1" stop-color="#809ed3" stop-opacity="0"/></linearGradient><linearGradient id="未命名的渐变_129" x1="58.96" y1="28" x2="274.04" y2="28" gradientUnits="userSpaceOnUse"><stop offset="0" stop-color="#fff" stop-opacity="0"/><stop offset="0.06" stop-color="#f6fbff" stop-opacity="0.04"/><stop offset="0.54" stop-color="#b3d9ff" stop-opacity="0.4"/><stop offset="1" stop-color="#36566f" stop-opacity="0"/></linearGradient><linearGradient id="未命名的渐变_183" x1="-338.36" y1="2437.86" x2="-338.36" y2="2426.74" gradientTransform="translate(2469.86 366.86) rotate(90)" gradientUnits="userSpaceOnUse"><stop offset="0" stop-color="#4c6dbb" stop-opacity="0.8"/><stop offset="0.21" stop-color="#4e6fbd" stop-opacity="0.81"/><stop offset="0.37" stop-color="#5577c3" stop-opacity="0.82"/><stop offset="0.51" stop-color="#6284ce" stop-opacity="0.86"/><stop offset="0.64" stop-color="#7396dd" stop-opacity="0.9"/><stop offset="0.76" stop-color="#88adf0" stop-opacity="0.95"/><stop offset="0.85" stop-color="#9ac0ff"/></linearGradient><linearGradient id="未命名的渐变_186" x1="33.05" y1="28.5" x2="47.36" y2="28.5" gradientUnits="userSpaceOnUse"><stop offset="0" stop-color="#4c6dbb" stop-opacity="0.2"/><stop offset="0.2" stop-color="#4e6fbd" stop-opacity="0.21"/><stop offset="0.35" stop-color="#5576c2" stop-opacity="0.24"/><stop offset="0.49" stop-color="#6082cc" stop-opacity="0.3"/><stop offset="0.62" stop-color="#6f92da" stop-opacity="0.38"/><stop offset="0.74" stop-color="#83a8eb" stop-opacity="0.48"/><stop offset="0.85" stop-color="#9ac0ff" stop-opacity="0.6"/></linearGradient></defs><title>资源 18</title><g id="图层_2" data-name="图层 2"><g id="图层_1-2" data-name="图层 1"><rect class="cls-1" width="667" height="56"/><rect class="cls-2" x="59.46" y="10" width="214.07" height="36"/><polygon class="cls-3" points="43.13 28.5 32 20 32 37 43.13 28.5"/><path class="cls-4" d="M33.36,39c2.14-1.9,4.36-3.71,6.58-5.51,1.1-.91,2.23-1.78,3.35-2.67L45,29.5l.85-.65c.25-.17.71-.61.53-.35.18.26-.28-.18-.53-.35L45,27.5l-1.69-1.32c-1.12-.89-2.25-1.76-3.35-2.67L36.61,20.8c-1.08-.94-2.19-1.84-3.25-2.8,1.2.78,2.37,1.61,3.55,2.41L40.4,22.9c1.17.82,2.31,1.69,3.46,2.53l1.72,1.29.85.65.43.32a1.68,1.68,0,0,1,.28.24.85.85,0,0,1,.22.57.87.87,0,0,1-.22.57,1.68,1.68,0,0,1-.28.24l-.43.32-.85.65-1.72,1.29c-1.15.84-2.29,1.71-3.46,2.53C38.08,35.77,35.75,37.43,33.36,39Z"/></g></g></svg>