<svg xmlns="http://www.w3.org/2000/svg" xmlns:xlink="http://www.w3.org/1999/xlink" viewBox="0 0 393.38 159.66"><defs><style>.cls-1,.cls-3,.cls-4,.cls-5,.cls-8{fill:none;stroke-miterlimit:10;}.cls-1,.cls-3,.cls-4{stroke:#fff;}.cls-1{opacity:0.7;}.cls-2{opacity:0.2;}.cls-4{stroke-dasharray:3 3;}.cls-5{stroke-width:5px;stroke:url(#未命名的渐变_40);}.cls-6{fill:url(#未命名的渐变_268);}.cls-7{fill:#ffbd00;}.cls-8{stroke:#ff5100;stroke-width:0.5px;}</style><linearGradient id="未命名的渐变_40" x1="359.83" y1="28.24" x2="38.07" y2="28.24" gradientUnits="userSpaceOnUse"><stop offset="0" stop-color="#88d4f6"/><stop offset="0.68" stop-color="#507f9b" stop-opacity="0.32"/><stop offset="1" stop-color="#36566f" stop-opacity="0"/></linearGradient><linearGradient id="未命名的渐变_268" x1="236.77" y1="-2.74" x2="160.53" y2="195.87" gradientUnits="userSpaceOnUse"><stop offset="0" stop-color="#88d4f6" stop-opacity="0.6"/><stop offset="0.14" stop-color="#76b8d8" stop-opacity="0.47"/><stop offset="0.38" stop-color="#5a8eab" stop-opacity="0.27"/><stop offset="0.59" stop-color="#476f8a" stop-opacity="0.12"/><stop offset="0.76" stop-color="#3a5d76" stop-opacity="0.03"/><stop offset="0.87" stop-color="#36566f" stop-opacity="0"/></linearGradient></defs><title>资源 14</title><g id="图层_2" data-name="图层 2"><g id="图层_1-2" data-name="图层 1"><line class="cls-1" y1="159.16" x2="393.38" y2="159.16"/><g class="cls-2"><line class="cls-3" y1="127.43" x2="1.5" y2="127.43"/><line class="cls-4" x1="4.5" y1="127.43" x2="387.17" y2="127.43"/><line class="cls-3" x1="388.67" y1="127.43" x2="390.17" y2="127.43"/></g><g class="cls-2"><line class="cls-3" y1="95.7" x2="1.5" y2="95.7"/><line class="cls-4" x1="4.5" y1="95.7" x2="387.17" y2="95.7"/><line class="cls-3" x1="388.67" y1="95.7" x2="390.17" y2="95.7"/></g><g class="cls-2"><line class="cls-3" y1="63.96" x2="1.5" y2="63.96"/><line class="cls-4" x1="4.5" y1="63.96" x2="387.17" y2="63.96"/><line class="cls-3" x1="388.67" y1="63.96" x2="390.17" y2="63.96"/></g><g class="cls-2"><line class="cls-3" y1="32.23" x2="1.5" y2="32.23"/><line class="cls-4" x1="4.5" y1="32.23" x2="387.17" y2="32.23"/><line class="cls-3" x1="388.67" y1="32.23" x2="390.17" y2="32.23"/></g><line class="cls-1" y1="0.5" x2="393.38" y2="0.5"/><polyline class="cls-5" points="38.58 32.23 84.41 22.59 130.24 39.5 176.07 5.99 221.9 51.06 267.72 42.17 313.55 27.34 359.38 35.64"/><polygon class="cls-6" points="38.58 32.23 84.41 22.59 130.24 39.5 176.07 5.99 221.9 51.06 267.72 42.17 313.55 27.34 359.38 35.64 359.38 159.16 38.58 159.16 38.58 32.23"/><circle class="cls-7" cx="359.38" cy="35.64" r="4.76"/><circle class="cls-8" cx="359.38" cy="35.64" r="6.87"/></g></g></svg>