<svg xmlns="http://www.w3.org/2000/svg" xmlns:xlink="http://www.w3.org/1999/xlink" viewBox="0 0 26.37 17.73"><defs><style>.cls-1{stroke:#a9e2ff;stroke-miterlimit:10;stroke-width:0.5px;fill:url(#未命名的渐变_16);}.cls-2{fill:url(#未命名的渐变_19);}.cls-3{fill:url(#未命名的渐变_19-2);}.cls-4{fill:url(#未命名的渐变_19-3);}.cls-5{fill:url(#未命名的渐变_19-4);}.cls-6{fill:url(#未命名的渐变_19-5);}.cls-7{fill:url(#未命名的渐变_22);}</style><linearGradient id="未命名的渐变_16" x1="-612.3" y1="17.48" x2="-612.3" y2="0.25" gradientTransform="matrix(-1, 0, 0, 1, -599.12, 0)" gradientUnits="userSpaceOnUse"><stop offset="0" stop-color="#6db8f6"/><stop offset="0.06" stop-color="#69b0e9" stop-opacity="0.86"/><stop offset="0.15" stop-color="#63a4d6" stop-opacity="0.66"/><stop offset="0.25" stop-color="#5e9ac6" stop-opacity="0.48"/><stop offset="0.35" stop-color="#5a91b8" stop-opacity="0.33"/><stop offset="0.46" stop-color="#568aad" stop-opacity="0.21"/><stop offset="0.57" stop-color="#5385a4" stop-opacity="0.12"/><stop offset="0.69" stop-color="#52819e" stop-opacity="0.05"/><stop offset="0.83" stop-color="#507f9a" stop-opacity="0.01"/><stop offset="1" stop-color="#507e99" stop-opacity="0"/></linearGradient><linearGradient id="未命名的渐变_19" x1="-605.84" y1="3.32" x2="-605.84" y2="17.48" gradientTransform="matrix(1, 0, 0, -1, 612.57, 20.81)" gradientUnits="userSpaceOnUse"><stop offset="0" stop-color="#6db8f6"/><stop offset="0.41" stop-color="#609fce" stop-opacity="0.57"/><stop offset="0.82" stop-color="#5587a8" stop-opacity="0.16"/><stop offset="1" stop-color="#507e99" stop-opacity="0"/></linearGradient><linearGradient id="未命名的渐变_19-2" x1="-609.03" y1="9.48" x2="-609.03" y2="17.48" gradientTransform="matrix(1, 0, 0, -1, 618.94, 26.96)" xlink:href="#未命名的渐变_19"/><linearGradient id="未命名的渐变_19-3" x1="-612.22" y1="5.72" x2="-612.22" y2="17.48" gradientTransform="matrix(1, 0, 0, -1, 625.32, 23.2)" xlink:href="#未命名的渐变_19"/><linearGradient id="未命名的渐变_19-4" x1="-615.41" y1="2.33" x2="-615.41" y2="17.48" gradientTransform="matrix(1, 0, 0, -1, 631.7, 19.81)" xlink:href="#未命名的渐变_19"/><linearGradient id="未命名的渐变_19-5" x1="-618.6" y1="8.14" x2="-618.6" y2="17.48" gradientTransform="matrix(1, 0, 0, -1, 638.08, 25.62)" xlink:href="#未命名的渐变_19"/><linearGradient id="未命名的渐变_22" x1="-603.43" y1="4.89" x2="-603.43" y2="17.48" gradientTransform="matrix(1, 0, 0, -1, 607.74, 22.38)" gradientUnits="userSpaceOnUse"><stop offset="0" stop-color="#6db8f6"/><stop offset="0.09" stop-color="#6cb6f3" stop-opacity="0.97"/><stop offset="0.22" stop-color="#6ab2ec" stop-opacity="0.9"/><stop offset="0.37" stop-color="#66abe1" stop-opacity="0.77"/><stop offset="0.54" stop-color="#61a1d1" stop-opacity="0.6"/><stop offset="0.73" stop-color="#5b94bc" stop-opacity="0.38"/><stop offset="0.92" stop-color="#5385a4" stop-opacity="0.11"/><stop offset="1" stop-color="#507e99" stop-opacity="0"/></linearGradient></defs><title>资源 10</title><g id="图层_2" data-name="图层 2"><g id="图层_1-2" data-name="图层 1"><path class="cls-1" d="M.25,1.91V15.82a1.66,1.66,0,0,0,1.66,1.66H24.45A1.66,1.66,0,0,0,25.9,15L19.24,3.22a5.92,5.92,0,0,0-5.12-3H1.91A1.66,1.66,0,0,0,.25,1.91Z"/><path class="cls-2" d="M5.47,3.32H8a0,0,0,0,1,0,0V16.84a.64.64,0,0,1-.64.64H6.11a.64.64,0,0,1-.64-.64V3.32a0,0,0,0,1,0,0Z" transform="translate(13.45 20.81) rotate(-180)"/><path class="cls-3" d="M8.66,9.48h2.51a0,0,0,0,1,0,0v7.36a.64.64,0,0,1-.64.64H9.3a.64.64,0,0,1-.64-.64V9.48a0,0,0,0,1,0,0Z" transform="translate(19.83 26.96) rotate(-180)"/><path class="cls-4" d="M11.85,5.72h2.51a0,0,0,0,1,0,0V16.84a.64.64,0,0,1-.64.64H12.49a.64.64,0,0,1-.64-.64V5.72A0,0,0,0,1,11.85,5.72Z" transform="translate(26.2 23.2) rotate(-180)"/><path class="cls-5" d="M15,2.33h2.51a0,0,0,0,1,0,0V16.84a.64.64,0,0,1-.64.64H15.68a.64.64,0,0,1-.64-.64V2.33A0,0,0,0,1,15,2.33Z" transform="translate(32.58 19.81) rotate(-180)"/><path class="cls-6" d="M18.23,8.14h2.51a0,0,0,0,1,0,0v8.7a.64.64,0,0,1-.64.64H18.87a.64.64,0,0,1-.64-.64V8.14a0,0,0,0,1,0,0Z" transform="translate(38.96 25.62) rotate(-180)"/><path class="cls-7" d="M3.83,4.89h1a0,0,0,0,1,0,0V17.15a.33.33,0,0,1-.33.33H4.16a.33.33,0,0,1-.33-.33V4.89a0,0,0,0,1,0,0Z" transform="translate(8.62 22.38) rotate(-180)"/></g></g></svg>