<svg xmlns="http://www.w3.org/2000/svg" xmlns:xlink="http://www.w3.org/1999/xlink" viewBox="0 0 16.56 14.03"><defs><style>.cls-1{fill:url(#未命名的渐变_215);}.cls-2{fill:url(#未命名的渐变_215-2);}</style><linearGradient id="未命名的渐变_215" x1="-0.31" y1="7.02" x2="9.83" y2="7.02" gradientUnits="userSpaceOnUse"><stop offset="0" stop-color="#fff"/><stop offset="0" stop-color="#4f6b81"/><stop offset="1" stop-color="#e9ecef"/></linearGradient><linearGradient id="未命名的渐变_215-2" x1="6.42" y1="7.02" x2="16.55" y2="7.02" xlink:href="#未命名的渐变_215"/></defs><title>资源 24</title><g id="图层_2" data-name="图层 2"><g id="图层_1-2" data-name="图层 1"><path class="cls-1" d="M0,14A113.59,113.59,0,0,1,8.71,6.62v.79A113.59,113.59,0,0,1,0,0,113.65,113.65,0,0,1,9.32,6.62l.51.4-.51.39A113.65,113.65,0,0,1,0,14Z"/><path class="cls-2" d="M6.72,14C9.49,11.38,12.44,9,15.43,6.62v.79C12.44,5.06,9.49,2.65,6.72,0,10,2,13,4.29,16.05,6.62l.51.4-.51.39C13,9.74,10,12,6.72,14Z"/></g></g></svg>