<svg xmlns="http://www.w3.org/2000/svg" xmlns:xlink="http://www.w3.org/1999/xlink" viewBox="0 0 32 53.59"><defs><style>.cls-1{fill:url(#未命名的渐变_209);}.cls-2{fill:url(#未命名的渐变_145);}</style><linearGradient id="未命名的渐变_209" x1="16" y1="53.59" x2="16" gradientUnits="userSpaceOnUse"><stop offset="0" stop-color="#8792d2"/><stop offset="0.09" stop-color="#96a0d8"/><stop offset="0.38" stop-color="#c3c9e9"/><stop offset="0.64" stop-color="#e4e6f5"/><stop offset="0.85" stop-color="#f8f8fc"/><stop offset="1" stop-color="#fff"/></linearGradient><linearGradient id="未命名的渐变_145" x1="16" y1="1.83" x2="16" y2="51.77" gradientUnits="userSpaceOnUse"><stop offset="0.09" stop-color="#fff" stop-opacity="0"/><stop offset="0.24" stop-color="#eff0f9" stop-opacity="0.13"/><stop offset="0.56" stop-color="#c6c8e8" stop-opacity="0.48"/><stop offset="1" stop-color="#878ccf"/></linearGradient></defs><title>资源 26</title><g id="图层_2" data-name="图层 2"><g id="图层_1-2" data-name="图层 1"><path class="cls-1" d="M31,1V44l-8.63,8.63H1V1H31m.25-1H.75A.76.76,0,0,0,0,.75v52.1a.75.75,0,0,0,.75.74H22.47a.74.74,0,0,0,.53-.21l8.78-8.78a.75.75,0,0,0,.22-.53V.75A.76.76,0,0,0,31.25,0Z"/><path class="cls-2" d="M30.33,42.89V2.52a.68.68,0,0,0-.67-.69H2.34a.68.68,0,0,0-.67.69V51.07a.68.68,0,0,0,.67.7H21.8a.62.62,0,0,0,.47-.21l7.86-8.18A.68.68,0,0,0,30.33,42.89Z"/></g></g></svg>