<svg xmlns="http://www.w3.org/2000/svg" xmlns:xlink="http://www.w3.org/1999/xlink" viewBox="0 0 32 53.59"><defs><style>.cls-1{fill:url(#未命名的渐变_98);}.cls-2{fill:url(#未命名的渐变_79);}</style><linearGradient id="未命名的渐变_98" x1="16" y1="53.59" x2="16" gradientUnits="userSpaceOnUse"><stop offset="0" stop-color="#ec5b1b" stop-opacity="0.8"/><stop offset="0.03" stop-color="#ed5f22" stop-opacity="0.81"/><stop offset="0.28" stop-color="#f37d5a" stop-opacity="0.88"/><stop offset="0.51" stop-color="#f89586" stop-opacity="0.93"/><stop offset="0.71" stop-color="#fca7a6" stop-opacity="0.97"/><stop offset="0.88" stop-color="#feb1b9" stop-opacity="0.99"/><stop offset="1" stop-color="#ffb5c0"/></linearGradient><linearGradient id="未命名的渐变_79" x1="16" y1="1.83" x2="16" y2="51.77" gradientUnits="userSpaceOnUse"><stop offset="0.09" stop-color="#ffa207" stop-opacity="0.01"/><stop offset="0.23" stop-color="#ff9706" stop-opacity="0.12"/><stop offset="0.52" stop-color="#ff7c05" stop-opacity="0.4"/><stop offset="0.95" stop-color="#ff5102" stop-opacity="0.84"/><stop offset="1" stop-color="#ff4b02" stop-opacity="0.9"/></linearGradient></defs><title>资源 25</title><g id="图层_2" data-name="图层 2"><g id="图层_1-2" data-name="图层 1"><path class="cls-1" d="M31,1V44l-8.63,8.63H1V1H31m.25-1H.75A.76.76,0,0,0,0,.75v52.1a.75.75,0,0,0,.75.74H22.47a.74.74,0,0,0,.53-.21l8.78-8.78a.75.75,0,0,0,.22-.53V.75A.76.76,0,0,0,31.25,0Z"/><path class="cls-2" d="M30.33,42.89V2.52a.68.68,0,0,0-.67-.69H2.34a.68.68,0,0,0-.67.69V51.07a.68.68,0,0,0,.67.7H21.8a.62.62,0,0,0,.47-.21l7.86-8.18A.68.68,0,0,0,30.33,42.89Z"/></g></g></svg>