<svg xmlns="http://www.w3.org/2000/svg" xmlns:xlink="http://www.w3.org/1999/xlink" viewBox="0 0 378.78 37.78"><defs><style>.cls-1{fill:url(#未命名的渐变_421);}.cls-2{fill:#8a2642;}.cls-3{fill:url(#未命名的渐变_396);}.cls-4{fill:url(#未命名的渐变_400);}</style><linearGradient id="未命名的渐变_421" x1="1.5" y1="18.89" x2="112.88" y2="18.89" gradientUnits="userSpaceOnUse"><stop offset="0" stop-color="#66152b"/><stop offset="0.38" stop-color="#82233d"/><stop offset="0.75" stop-color="#962c4a"/><stop offset="1" stop-color="#9d304f"/></linearGradient><linearGradient id="未命名的渐变_396" x1="86.58" y1="18.89" x2="378.78" y2="18.89" gradientUnits="userSpaceOnUse"><stop offset="0" stop-color="#100e9a"/><stop offset="1" stop-color="aqua"/></linearGradient><linearGradient id="未命名的渐变_400" x1="378.78" y1="18.89" x2="86.58" y2="18.89" gradientUnits="userSpaceOnUse"><stop offset="0" stop-color="#0970c3"/><stop offset="1" stop-color="#6db8f6"/></linearGradient></defs><title>资源 32</title><g id="图层_2" data-name="图层 2"><g id="图层_1-2" data-name="图层 1"><path class="cls-1" d="M1.83,36.28A.33.33,0,0,1,1.5,36V1.83a.33.33,0,0,1,.33-.33H112.55a.31.31,0,0,1,.3.2.32.32,0,0,1-.07.36L78.64,36.18a.29.29,0,0,1-.23.1Z"/><path class="cls-2" d="M109.72,3,77.93,34.78H3V3H109.72m2.83-3H1.83A1.83,1.83,0,0,0,0,1.83V36a1.83,1.83,0,0,0,1.83,1.83H78.41a1.82,1.82,0,0,0,1.3-.54L113.84,3.12A1.83,1.83,0,0,0,112.55,0Z"/><path class="cls-3" d="M378.78,1.83V36A1.83,1.83,0,0,1,377,37.78H88.41a1.83,1.83,0,0,1-1.29-3.12L121.24.54a1.82,1.82,0,0,1,1.3-.54H377A1.83,1.83,0,0,1,378.78,1.83Z"/><path class="cls-4" d="M375.78,3V34.78H91.24L123,3H375.78M377,0H122.54a1.82,1.82,0,0,0-1.3.54L87.12,34.66a1.83,1.83,0,0,0,1.29,3.12H377A1.83,1.83,0,0,0,378.78,36V1.83A1.83,1.83,0,0,0,377,0Z"/></g></g></svg>