<svg xmlns="http://www.w3.org/2000/svg" xmlns:xlink="http://www.w3.org/1999/xlink" viewBox="0 0 393.38 159.16"><defs><style>.cls-1{opacity:0.2;}.cls-2,.cls-3,.cls-4{fill:none;stroke:#fff;stroke-miterlimit:10;}.cls-3{stroke-dasharray:3 3;}.cls-4{opacity:0.7;}.cls-5{fill:url(#未命名的渐变_430);}.cls-6{fill:url(#未命名的渐变_428);}.cls-7{fill:url(#未命名的渐变_430-2);}.cls-8{fill:url(#未命名的渐变_428-2);}.cls-9{fill:url(#未命名的渐变_430-3);}.cls-10{fill:url(#未命名的渐变_428-3);}.cls-11{fill:url(#未命名的渐变_430-4);}.cls-12{fill:url(#未命名的渐变_428-4);}.cls-13{fill:url(#未命名的渐变_430-5);}.cls-14{fill:url(#未命名的渐变_428-5);}.cls-15{fill:url(#未命名的渐变_430-6);}.cls-16{fill:url(#未命名的渐变_428-6);}.cls-17{fill:url(#未命名的渐变_430-7);}.cls-18{fill:url(#未命名的渐变_428-7);}.cls-19{fill:url(#未命名的渐变_430-8);}.cls-20{fill:url(#未命名的渐变_428-8);}</style><linearGradient id="未命名的渐变_430" x1="38.34" y1="159.16" x2="38.34" y2="59.34" gradientUnits="userSpaceOnUse"><stop offset="0" stop-color="#100e9a" stop-opacity="0"/><stop offset="1" stop-color="aqua"/></linearGradient><linearGradient id="未命名的渐变_428" x1="38.34" y1="59.34" x2="38.34" y2="51.59" gradientUnits="userSpaceOnUse"><stop offset="0" stop-color="#66152b" stop-opacity="0"/><stop offset="0.24" stop-color="#781e37" stop-opacity="0.33"/><stop offset="0.48" stop-color="#882641" stop-opacity="0.62"/><stop offset="0.7" stop-color="#942b49" stop-opacity="0.83"/><stop offset="0.88" stop-color="#9a2f4d" stop-opacity="0.95"/><stop offset="1" stop-color="#9d304f"/></linearGradient><linearGradient id="未命名的渐变_430-2" x1="84.16" y1="159.16" x2="84.16" y2="65.35" xlink:href="#未命名的渐变_430"/><linearGradient id="未命名的渐变_428-2" x1="84.16" y1="65.35" x2="84.16" y2="59.84" xlink:href="#未命名的渐变_428"/><linearGradient id="未命名的渐变_430-3" x1="129.99" y1="159.16" x2="129.99" y2="65.35" xlink:href="#未命名的渐变_430"/><linearGradient id="未命名的渐变_428-3" x1="129.99" y1="65.35" x2="129.99" y2="39.42" xlink:href="#未命名的渐变_428"/><linearGradient id="未命名的渐变_430-4" x1="175.82" y1="159.16" x2="175.82" y2="62.6" xlink:href="#未命名的渐变_430"/><linearGradient id="未命名的渐变_428-4" x1="175.82" y1="62.57" x2="175.82" y2="45.98" xlink:href="#未命名的渐变_428"/><linearGradient id="未命名的渐变_430-5" x1="221.65" y1="159.16" x2="221.65" y2="27" xlink:href="#未命名的渐变_430"/><linearGradient id="未命名的渐变_428-5" x1="221.65" y1="27" x2="221.65" y2="19.25" xlink:href="#未命名的渐变_428"/><linearGradient id="未命名的渐变_430-6" x1="267.48" y1="159.16" x2="267.48" y2="45.21" xlink:href="#未命名的渐变_430"/><linearGradient id="未命名的渐变_428-6" x1="267.48" y1="45.21" x2="267.48" y2="39.42" xlink:href="#未命名的渐变_428"/><linearGradient id="未命名的渐变_430-7" x1="313.31" y1="159.16" x2="313.31" y2="40.27" xlink:href="#未命名的渐变_430"/><linearGradient id="未命名的渐变_428-7" x1="313.31" y1="40.27" x2="313.31" y2="32.53" xlink:href="#未命名的渐变_428"/><linearGradient id="未命名的渐变_430-8" x1="359.14" y1="159.16" x2="359.14" y2="37.21" xlink:href="#未命名的渐变_430"/><linearGradient id="未命名的渐变_428-8" x1="359.14" y1="37.21" x2="359.14" y2="33.34" xlink:href="#未命名的渐变_428"/></defs><title>资源 33</title><g id="图层_2" data-name="图层 2"><g id="图层_1-2" data-name="图层 1"><g class="cls-1"><line class="cls-2" y1="127.43" x2="1.5" y2="127.43"/><line class="cls-3" x1="4.5" y1="127.43" x2="387.17" y2="127.43"/><line class="cls-2" x1="388.67" y1="127.43" x2="390.17" y2="127.43"/></g><g class="cls-1"><line class="cls-2" y1="95.7" x2="1.5" y2="95.7"/><line class="cls-3" x1="4.5" y1="95.7" x2="387.17" y2="95.7"/><line class="cls-2" x1="388.67" y1="95.7" x2="390.17" y2="95.7"/></g><g class="cls-1"><line class="cls-2" y1="63.96" x2="1.5" y2="63.96"/><line class="cls-3" x1="4.5" y1="63.96" x2="387.17" y2="63.96"/><line class="cls-2" x1="388.67" y1="63.96" x2="390.17" y2="63.96"/></g><g class="cls-1"><line class="cls-2" y1="32.23" x2="1.5" y2="32.23"/><line class="cls-3" x1="4.5" y1="32.23" x2="387.17" y2="32.23"/><line class="cls-2" x1="388.67" y1="32.23" x2="390.17" y2="32.23"/></g><line class="cls-4" y1="0.5" x2="393.38" y2="0.5"/><rect class="cls-5" x="28.66" y="59.34" width="19.35" height="99.83"/><rect class="cls-6" x="28.66" y="51.59" width="19.35" height="7.74"/><rect class="cls-7" x="74.49" y="65.35" width="19.35" height="93.81"/><rect class="cls-8" x="74.49" y="59.84" width="19.35" height="5.51"/><rect class="cls-9" x="120.32" y="65.35" width="19.35" height="93.81"/><rect class="cls-10" x="120.32" y="39.42" width="19.35" height="25.94"/><rect class="cls-11" x="166.15" y="62.6" width="19.35" height="96.56"/><rect class="cls-12" x="166.15" y="45.98" width="19.35" height="16.6"/><rect class="cls-13" x="211.98" y="27" width="19.35" height="132.17"/><rect class="cls-14" x="211.98" y="19.25" width="19.35" height="7.74"/><rect class="cls-15" x="257.8" y="45.21" width="19.35" height="113.95"/><rect class="cls-16" x="257.8" y="39.42" width="19.35" height="5.79"/><rect class="cls-17" x="303.63" y="40.27" width="19.35" height="118.89"/><rect class="cls-18" x="303.63" y="32.53" width="19.35" height="7.74"/><rect class="cls-19" x="349.46" y="37.21" width="19.35" height="121.95"/><rect class="cls-20" x="349.46" y="33.34" width="19.35" height="3.87"/></g></g></svg>