<svg xmlns="http://www.w3.org/2000/svg" xmlns:xlink="http://www.w3.org/1999/xlink" viewBox="0 0 93 32"><defs><style>.cls-1{fill:url(#未命名的渐变_210);}.cls-2{fill:url(#未命名的渐变_212);}.cls-3{fill:url(#未命名的渐变_215);}</style><linearGradient id="未命名的渐变_210" x1="54.42" x2="54.42" y2="32" gradientTransform="matrix(-1, 0, 0, 1, 100.92, 0)" gradientUnits="userSpaceOnUse"><stop offset="0" stop-color="#608ad5" stop-opacity="0"/><stop offset="0.11" stop-color="#5d8ad6" stop-opacity="0.08"/><stop offset="0.34" stop-color="#578cd9" stop-opacity="0.28"/><stop offset="0.66" stop-color="#4c8ede" stop-opacity="0.61"/><stop offset="1" stop-color="#4090e3"/></linearGradient><linearGradient id="未命名的渐变_212" x1="46.5" y1="32" x2="46.5" gradientUnits="userSpaceOnUse"><stop offset="0" stop-color="#fff"/><stop offset="0" stop-color="#4f6b81"/><stop offset="0.99" stop-color="#e9ecef" stop-opacity="0.6"/></linearGradient><linearGradient id="未命名的渐变_215" x1="21.02" y1="16" x2="10.93" y2="16" gradientUnits="userSpaceOnUse"><stop offset="0" stop-color="#fff"/><stop offset="0" stop-color="#4f6b81"/><stop offset="1" stop-color="#e9ecef"/></linearGradient></defs><title>资源 8</title><g id="图层_2" data-name="图层 2"><g id="图层_1-2" data-name="图层 1"><polygon class="cls-1" points="83.35 0 93 9.7 93 32 0 32 0 0 83.35 0"/><path class="cls-2" d="M82.93,1,92,10.11V31H1V1H82.93m.42-1H0V32H93V9.7L83.35,0Z"/><path class="cls-3" d="M20.71,23c-3.23-2-6.28-4.3-9.28-6.63L10.92,16l.51-.39c3-2.33,6.05-4.6,9.28-6.63A113,113,0,0,1,12,16.39v-.78A113,113,0,0,1,20.71,23Z"/></g></g></svg>