<svg xmlns="http://www.w3.org/2000/svg" xmlns:xlink="http://www.w3.org/1999/xlink" width="32" height="41" viewBox="0 0 32 41" fill="none"><g opacity="1" transform="translate(0 0)  rotate(0 16.000000000000014 20.152417674556382)"><path id="路径 1" fill-rule="evenodd" style="fill:#FFFFFF" transform="translate(0 0)  rotate(0 16.000000000000014 15.999999999999998)" opacity="1" d="M16,0C7.16,0 0,7.16 0,16C0,24.84 7.16,32 16,32C24.84,32 32,24.84 32,16C32,7.16 24.84,0 16,0Z " /><path id="三角形 3" fill-rule="evenodd" style="fill:#FFFFFF" transform="translate(3.500000000003638 25.860967069822436)  rotate(180 12.520043892114025 7.221934139645162)" opacity="1" d="M0,14.44L25.04,14.44L13.3,0.87C13.11,0.65 12.83,0.52 12.54,0.52C12.25,0.52 11.97,0.65 11.78,0.87L0,14.44Z " /><g opacity="1" transform="translate(8.001755455323291 17.047779821055883)  rotate(0 7.989272217481415 3.233158600512009)"><path id="路径 2" fill-rule="evenodd" style="fill:#457DFF" transform="translate(0 0)  rotate(0 7.989272217481415 3.233158600512009)" opacity="1" d="M1,0C0.45,0 0,0.45 0,1L0,5.47C0,6.02 0.45,6.47 1,6.47L14.98,6.47C15.53,6.47 15.98,6.02 15.98,5.47L15.98,1C15.98,0.45 15.53,0 14.98,0L1,0Z " /><path id="路径 3" fill-rule="evenodd" style="fill:#FFFFFF" transform="translate(1.6649285370003781 2.4342080780829747)  rotate(0 0.7989389244020368 0.7989389200481528)" opacity="1" d="M1.36,1.36C1.51,1.21 1.6,1.01 1.6,0.8C1.6,0.48 1.4,0.18 1.1,0.06C0.81,-0.06 0.46,0.01 0.23,0.23C0.01,0.46 -0.06,0.81 0.06,1.1C0.18,1.4 0.48,1.6 0.8,1.6C1.01,1.6 1.21,1.51 1.36,1.36Z " /><path id="路径 4" fill-rule="evenodd" style="fill:#FFFFFF" transform="translate(4.086309886628442 2.4342313787637977)  rotate(0 0.7989272217518253 0.7989289385147865)" opacity="1" d="M0.8,1.6C1.01,1.6 1.21,1.51 1.36,1.36C1.51,1.21 1.6,1.01 1.6,0.8C1.6,0.36 1.24,0 0.8,0C0.36,0 0,0.36 0,0.8C0,1.24 0.36,1.6 0.8,1.6L0.8,1.6Z " /></g><g opacity="1" transform="translate(8.001755455323291 8.58258416093122)  rotate(0 7.989272217481415 3.2331586005120085)"><path id="路径 5" fill-rule="evenodd" style="fill:#457DFF" transform="translate(0 0)  rotate(0 7.989272217481415 3.2331586005120085)" opacity="1" d="M0,5.47C0,6.02 0.45,6.47 1,6.47L14.98,6.47C15.53,6.47 15.98,6.02 15.98,5.47L15.98,1C15.98,0.45 15.53,0 14.98,0L1,0C0.45,0 0,0.45 0,1L0,5.47Z " /><path id="路径 6" fill-rule="evenodd" style="fill:#FFFFFF" transform="translate(12.71651834694785 2.4342080780829747)  rotate(0 0.7993289778725472 0.7989389200481528)" opacity="1" d="M0,0.8C0,1.01 0.08,1.21 0.23,1.36C0.38,1.51 0.59,1.6 0.8,1.6C1.12,1.6 1.41,1.4 1.54,1.1C1.66,0.81 1.59,0.46 1.36,0.23C1.14,0.01 0.79,-0.06 0.49,0.06C0.2,0.18 0,0.48 0,0.8L0,0.8Z " /><path id="路径 7" fill-rule="evenodd" style="fill:#FFFFFF" transform="translate(10.295160307203332 2.4342313787637977)  rotate(0 0.7993173229306784 0.798927412502274)" opacity="1" d="M0,0.8C0,1.01 0.08,1.21 0.23,1.36C0.38,1.51 0.59,1.6 0.8,1.6C1.24,1.6 1.6,1.24 1.6,0.8C1.6,0.36 1.24,0 0.8,0C0.36,0 0,0.36 0,0.8L0,0.8Z " /></g></g></svg>