<svg xmlns="http://www.w3.org/2000/svg" xmlns:xlink="http://www.w3.org/1999/xlink" width="32" height="41" viewBox="0 0 32 41" fill="none"><g opacity="1" transform="translate(0 0)  rotate(0 15.999999999999563 20.106505841646708)"><path id="路径 1" fill-rule="evenodd" style="fill:#FFFFFF" transform="translate(0 0)  rotate(0 15.999999999999563 20.106505841646708)" opacity="1" d="M27.56 27.05L17.4 39.48C17.08 39.94 16.56 40.21 16 40.21C15.44 40.21 14.92 39.94 14.6 39.48L4.42 27.04L1.61 23C1.61 22.99 1.6 22.99 1.6 22.98C0.54 20.8 0 18.42 0 16C0 7.16 7.16 0 16 0C24.84 0 32 7.16 32 16C32 18.42 31.46 20.8 30.4 22.98L27.56 27.05Z" /><path id="路径 2" fill-rule="evenodd" style="fill:#E67878" transform="translate(8.002738342649536 17.040748170315055)  rotate(0 3.8515664101181564 3.2330766604608505)" opacity="1" d="M7.12,0L1,0C0.45,0 0,0.45 0,1L0,5.47C0,6.02 0.45,6.47 1,6.47L7.7,6.47C6.9,5.39 6.47,4.09 6.47,2.75C6.47,1.8 6.69,0.86 7.12,0Z " /><path id="路径 3" fill-rule="evenodd" style="fill:#FFFFFF" transform="translate(9.666844501687592 19.474894556672098)  rotate(0 0.7989193920251565 0.7995037610031739)" opacity="1" d="M0.8,1.6C1.01,1.6 1.21,1.51 1.36,1.36C1.51,1.21 1.6,1.01 1.6,0.8C1.6,0.48 1.4,0.18 1.1,0.06C0.81,-0.06 0.46,0.01 0.23,0.23C0.01,0.46 -0.06,0.81 0.06,1.1C0.18,1.4 0.48,1.6 0.8,1.6L0.8,1.6Z " /><path id="路径 4" fill-rule="evenodd" style="fill:#FFFFFF" transform="translate(12.088164484663139 19.474917856762204)  rotate(0 0.7989074031980367 0.7994921109575771)" opacity="1" d="M0.8,1.6C1.01,1.6 1.21,1.51 1.36,1.36C1.51,1.21 1.6,1.01 1.6,0.8C1.6,0.36 1.24,0 0.8,0C0.36,0 0,0.36 0,0.8C0,1.24 0.36,1.6 0.8,1.6L0.8,1.6Z " /><path id="路径 5" fill-rule="evenodd" style="fill:#F56C6C" transform="translate(8.002738342649536 8.576936636367009)  rotate(0 7.989654877078662 3.233077003809139)" opacity="1" d="M15.98,5.47L15.98,1C15.98,0.73 15.87,0.48 15.69,0.29C15.5,0.1 15.24,0 14.98,0L1,0C0.45,0 0,0.45 0,1L0,5.47C0,6.02 0.45,6.47 1,6.47L8.67,6.47C10.7,4.73 13.61,4.49 15.9,5.85C15.95,5.73 15.98,5.6 15.98,5.47Z " /><path id="路径 6" fill-rule="evenodd" style="fill:#FFFFFF" transform="translate(18.297637732877774 11.011107009510852)  rotate(0 0.7989069740134702 0.798906974013494)" opacity="1" d="M1.6,0.8C1.6,0.36 1.24,0 0.8,0C0.36,0 0,0.36 0,0.8C0,1.24 0.36,1.6 0.8,1.6C1.24,1.6 1.6,1.24 1.6,0.8Z " /><path id="路径 7" fill-rule="evenodd" style="fill:#FFFFFF" transform="translate(20.718544315266627 11.011107009510852)  rotate(0 0.7989069740134702 0.798906974013494)" opacity="1" d="M1.6,0.8C1.6,0.36 1.24,0 0.8,0C0.36,0 0,0.36 0,0.8C0,1.24 0.36,1.6 0.8,1.6C1.24,1.6 1.6,1.24 1.6,0.8Z " /><path id="路径 8" fill-rule="evenodd" style="fill:#FFC300" transform="translate(15.647747559796699 14.721655416159592)  rotate(0 5.071186846765188 5.071186846765337)" opacity="1" d="M0,5.07C0,7.87 2.27,10.14 5.07,10.14C7.87,10.14 10.14,7.87 10.14,5.07C10.14,2.27 7.87,0 5.07,0C2.27,0 0,2.27 0,5.07Z " /><path id="路径 9" fill-rule="evenodd" style="fill:#FFFFFF" transform="translate(19.943432910302363 21.879830696017052)  rotate(0 0.7755019383968685 0.7760866332033102)" opacity="1" d="M0.78,1.55C0.98,1.55 1.18,1.47 1.32,1.32C1.47,1.18 1.55,0.98 1.55,0.78C1.55,0.35 1.2,0 0.78,0C0.35,0 0,0.35 0,0.78C0,1.2 0.35,1.55 0.78,1.55L0.78,1.55Z " /><path id="路径 10" fill-rule="evenodd" style="fill:#FFFFFF" transform="translate(19.943432910302363 16.614378383890653)  rotate(0 0.775501496259173 2.3604424315213164)" opacity="1" d="M1.55,0.78C1.55,0.35 1.2,0 0.78,0C0.35,0 0,0.35 0,0.78L0,3.95C0,4.37 0.35,4.72 0.78,4.72C1.2,4.72 1.55,4.37 1.55,3.95L1.55,0.78Z " /></g></svg>