<svg xmlns="http://www.w3.org/2000/svg" xmlns:xlink="http://www.w3.org/1999/xlink" width="32" height="41" viewBox="0 0 32 41" fill="none"><defs><rect id="path_0" x="0" y="0" width="31.999999999999126" height="40.213011683293416" /></defs><g opacity="1" transform="translate(0 0)  rotate(0 15.999999999999563 20.106505841646708)"><mask id="bg-mask-0" fill="white"><use xlink:href="#path_0"></use></mask><g mask="url(#bg-mask-0)" ><path id="路径 1" fill-rule="evenodd" style="fill:#F56C6C" transform="translate(0 0)  rotate(0 15.999999999999563 20.106505841646708)" opacity="1" d="M27.56 27.05L17.4 39.48C17.08 39.94 16.56 40.21 16 40.21C15.44 40.21 14.92 39.94 14.6 39.48L4.42 27.04L1.61 23C1.61 22.99 1.6 22.99 1.6 22.98C0.54 20.8 0 18.42 0 16C0 7.16 7.16 0 16 0C24.84 0 32 7.16 32 16C32 18.42 31.46 20.8 30.4 22.98L27.56 27.05Z" /><path id="分组 1" fill-rule="evenodd" style="fill:#FFFFFF" transform="translate(8.002738342650854 17.040748170315155)  rotate(0 3.8515664101181564 3.2330766604608505)" opacity="1" d="M7.12 0L1 0C0.45 0 0 0.45 0 1L0 5.47C0 6.02 0.45 6.47 1 6.47L7.7 6.47C6.9 5.39 6.47 4.09 6.47 2.75C6.47 1.8 6.69 0.86 7.12 0Z M2.46411 4.03415C2.67411 4.03415 2.87411 3.94415 3.02411 3.79415C3.17411 3.64415 3.26411 3.44415 3.26411 3.23415C3.26411 2.91415 3.06411 2.61415 2.76411 2.49415C2.47411 2.37415 2.12411 2.44415 1.89411 2.66415C1.67411 2.89415 1.60411 3.24415 1.72411 3.53415C1.84411 3.83415 2.14411 4.03415 2.46411 4.03415L2.46411 4.03415Z M4.88543 4.03417C5.09543 4.03417 5.29543 3.94417 5.44543 3.79417C5.59543 3.64417 5.68543 3.44417 5.68543 3.23417C5.68543 2.79417 5.32543 2.43417 4.88543 2.43417C4.44543 2.43417 4.08543 2.79417 4.08543 3.23417C4.08543 3.67417 4.44543 4.03417 4.88543 4.03417L4.88543 4.03417Z " /><path id="分组 2" fill-rule="evenodd" style="fill:#FFFFFF" transform="translate(8.002738342650854 8.576936636367229)  rotate(0 7.989654877078662 3.233077003809139)" opacity="1" d="M15.98 5.47L15.98 1C15.98 0.73 15.87 0.48 15.69 0.29C15.5 0.1 15.24 0 14.98 0L1 0C0.45 0 0 0.45 0 1L0 5.47C0 6.02 0.45 6.47 1 6.47L8.67 6.47C10.7 4.73 13.61 4.49 15.9 5.85C15.95 5.73 15.98 5.6 15.98 5.47Z M11.8949 3.23417C11.8949 2.79417 11.5349 2.43417 11.0949 2.43417C10.6549 2.43417 10.2949 2.79417 10.2949 3.23417C10.2949 3.67417 10.6549 4.03417 11.0949 4.03417C11.5349 4.03417 11.8949 3.67417 11.8949 3.23417Z M14.3158 3.23417C14.3158 2.79417 13.9558 2.43417 13.5158 2.43417C13.0758 2.43417 12.7158 2.79417 12.7158 3.23417C12.7158 3.67417 13.0758 4.03417 13.5158 4.03417C13.9558 4.03417 14.3158 3.67417 14.3158 3.23417Z " /><path id="分组 3" fill-rule="evenodd" style="fill:#FFC300" transform="translate(15.647747559797326 14.721655416159775)  rotate(0 5.071186846765188 5.071186846765337)" opacity="1" d="M0 5.07C0 7.87 2.27 10.14 5.07 10.14C7.87 10.14 10.14 7.87 10.14 5.07C10.14 2.27 7.87 0 5.07 0C2.27 0 0 2.27 0 5.07Z M5.07569 8.70818C5.27569 8.70818 5.47569 8.62818 5.61569 8.47818C5.76569 8.33818 5.84569 8.13818 5.84569 7.93818C5.84569 7.50818 5.49569 7.15818 5.07569 7.15818C4.64569 7.15818 4.29569 7.50818 4.29569 7.93818C4.29569 8.35818 4.64569 8.70818 5.07569 8.70818L5.07569 8.70818Z M5.84569 2.67272C5.84569 2.24272 5.49569 1.89272 5.07569 1.89272C4.64569 1.89272 4.29569 2.24272 4.29569 2.67272L4.29569 5.84272C4.29569 6.26272 4.64569 6.61272 5.07569 6.61272C5.49569 6.61272 5.84569 6.26272 5.84569 5.84272L5.84569 2.67272Z " /></g></g></svg>