<svg xmlns="http://www.w3.org/2000/svg" xmlns:xlink="http://www.w3.org/1999/xlink" width="32" height="41" viewBox="0 0 32 41" fill="none"><defs><rect id="path_0" x="0" y="0" width="32.00000000000003" height="31.999999999999996" /></defs><g opacity="1" transform="translate(0 0)  rotate(0 16.000000000001833 20.152417674556382)"><g opacity="1" transform="translate(0 0)  rotate(0 16.000000000000014 20.152417674556382)"><path id="路径 1" fill-rule="evenodd" style="fill:#457DFF" transform="translate(0 0)  rotate(0 16.000000000000014 15.999999999999998)" opacity="1" d="M16,0C7.16,0 0,7.16 0,16C0,24.84 7.16,32 16,32C24.84,32 32,24.84 32,16C32,7.16 24.84,0 16,0Z " /><path id="三角形 3" fill-rule="evenodd" style="fill:#457DFF" transform="translate(3.500000000003638 25.860967069822436)  rotate(180 12.520043892114025 7.221934139645162)" opacity="1" d="M0,14.44L25.04,14.44L13.3,0.87C13.11,0.65 12.83,0.52 12.54,0.52C12.25,0.52 11.97,0.65 11.78,0.87L0,14.44Z " /></g><g opacity="1" transform="translate(3.637978807091713e-12 0.003869056701205409)  rotate(0 16.000000000000014 15.999999999999998)"><mask id="bg-mask-0" fill="white"><use xlink:href="#path_0"></use></mask><g mask="url(#bg-mask-0)" ><path id="分组 1" fill-rule="evenodd" style="fill:#FFFFFF" transform="translate(8.001755455321232 17.043910764354496)  rotate(0 7.989272217481417 3.2331586005120085)" opacity="1" d="M1 7.10543e-15C0.45 7.10543e-15 0 0.45 0 1L0 5.47C0 6.02 0.45 6.47 1 6.47L14.98 6.47C15.53 6.47 15.98 6.02 15.98 5.47L15.98 1C15.98 0.45 15.53 7.10543e-15 14.98 7.10543e-15L1 7.10543e-15Z M3.02493 3.79421C3.17493 3.64421 3.26493 3.44421 3.26493 3.23421C3.26493 2.91421 3.06493 2.61421 2.76493 2.49421C2.47493 2.37421 2.12493 2.44421 1.89493 2.66421C1.67493 2.89421 1.60493 3.24421 1.72493 3.53421C1.84493 3.83421 2.14493 4.03421 2.46493 4.03421C2.67493 4.03421 2.87493 3.94421 3.02493 3.79421Z M4.88631 4.03423C5.09631 4.03423 5.29631 3.94423 5.44631 3.79423C5.59631 3.64423 5.68631 3.44423 5.68631 3.23423C5.68631 2.79423 5.32631 2.43423 4.88631 2.43423C4.44631 2.43423 4.08631 2.79423 4.08631 3.23423C4.08631 3.67423 4.44631 4.03423 4.88631 4.03423L4.88631 4.03423Z " /><path id="分组 2" fill-rule="evenodd" style="fill:#FFFFFF" transform="translate(8.001755455321232 8.578715104230167)  rotate(0 7.989272217481417 3.2331586005120085)" opacity="1" d="M0 5.47C0 6.02 0.45 6.47 1 6.47L14.98 6.47C15.53 6.47 15.98 6.02 15.98 5.47L15.98 1C15.98 0.45 15.53 -1.42109e-14 14.98 -1.42109e-14L1 -1.42109e-14C0.45 -1.42109e-14 0 0.45 0 1L0 5.47Z M12.7165 3.23421C12.7165 3.44421 12.7965 3.64421 12.9465 3.79421C13.0965 3.94421 13.3065 4.03421 13.5165 4.03421C13.8365 4.03421 14.1265 3.83421 14.2565 3.53421C14.3765 3.24421 14.3065 2.89421 14.0765 2.66421C13.8565 2.44421 13.5065 2.37421 13.2065 2.49421C12.9165 2.61421 12.7165 2.91421 12.7165 3.23421L12.7165 3.23421Z M10.2952 3.23423C10.2952 3.44423 10.3752 3.64423 10.5252 3.79423C10.6752 3.94423 10.8852 4.03423 11.0952 4.03423C11.5352 4.03423 11.8952 3.67423 11.8952 3.23423C11.8952 2.79423 11.5352 2.43423 11.0952 2.43423C10.6552 2.43423 10.2952 2.79423 10.2952 3.23423L10.2952 3.23423Z " /></g></g></g></svg>