<svg xmlns="http://www.w3.org/2000/svg" xmlns:xlink="http://www.w3.org/1999/xlink" width="32" height="41" viewBox="0 0 32 41" fill="none"><g opacity="1" transform="translate(0 0)  rotate(0 16.000000000000014 20.221934139645164)"><path id="三角形 3" fill-rule="evenodd" style="fill:#FFFFFF" transform="translate(3.4799999999995634 26)  rotate(180 12.520043892114025 7.221934139645164)" opacity="1" d="M0,14.44L25.04,14.44L13.3,0.87C13.11,0.65 12.83,0.52 12.54,0.52C12.25,0.52 11.97,0.65 11.78,0.87L0,14.44Z " /><path id="路径 1" fill-rule="evenodd" style="fill:#FFFFFF" transform="translate(0 0)  rotate(0 16.000000000000014 15.999999999999998)" opacity="1" d="M16,0C7.16,0 0,7.16 0,16C0,24.84 7.16,32 16,32C24.84,32 32,24.84 32,16C32,7.16 24.84,0 16,0Z " /><path id="路径 1" fill-rule="evenodd" style="fill:#457DFF" transform="translate(8 8.5)  rotate(0 8.000000000000014 7.499999999999998)" opacity="1" d="M0.82,15L15.18,15C15.63,15 16,14.63 16,14.17L16,6.2C16,5.74 15.63,5.37 15.18,5.37L13.09,5.37L13.09,3.24C13.09,2.78 12.72,2.41 12.27,2.41L11.64,2.41L11.64,0.83C11.64,0.37 11.27,0 10.82,0L5.18,0C4.96,0 4.76,0.09 4.6,0.24C4.45,0.4 4.36,0.61 4.36,0.83L4.36,2.41L3.73,2.41C3.51,2.41 3.3,2.5 3.15,2.65C3,2.81 2.91,3.02 2.91,3.24L2.91,5.37L0.82,5.37C0.6,5.37 0.39,5.46 0.24,5.61C0.09,5.77 0,5.98 0,6.2L0,14.17C0,14.39 0.09,14.6 0.24,14.76C0.39,14.91 0.6,15 0.82,15Z " /><path id="路径 2" fill-rule="evenodd" style="fill:#FFFFFF" transform="translate(10.909090949531674 16.833333327739638)  rotate(0 0.7272727250260403 1.6666666554794511)" opacity="1" d="M0,2.59C0,3 0.33,3.33 0.73,3.33C1.13,3.33 1.45,3 1.45,2.59L1.45,0.74C1.45,0.33 1.13,0 0.73,0C0.33,0 0,0.33 0,0.74L0,2.59Z " /><path id="路径 3" fill-rule="evenodd" style="fill:#FFFFFF" transform="translate(13.818039201247302 16.81869386835524)  rotate(0 0.7272733279601273 1.6666666554794887)" opacity="1" d="M0,2.61C0.01,3.01 0.33,3.33 0.73,3.33C1.12,3.33 1.45,3.01 1.45,2.61L1.45,0.76C1.46,0.49 1.32,0.24 1.1,0.1C0.87,-0.03 0.59,-0.03 0.36,0.1C0.13,0.24 -0.01,0.49 0,0.76L0,2.61Z " /><path id="路径 4" fill-rule="evenodd" style="fill:#FFFFFF" transform="translate(16.727272749740223 16.833333327739638)  rotate(0 0.7272727250260403 1.6666666554794511)" opacity="1" d="M0.73,0C0.33,0 0,0.33 0,0.74L0,2.59C0,3 0.33,3.33 0.73,3.33C1.13,3.33 1.45,3 1.45,2.59L1.45,0.74C1.45,0.33 1.13,0 0.73,0Z " /><path id="路径 5" fill-rule="evenodd" style="fill:#FFFFFF" transform="translate(19.63636364984268 16.833333327739638)  rotate(0 0.7272727250260403 1.6666666554794511)" opacity="1" d="M1.45,0.74C1.45,0.33 1.13,0 0.73,0C0.33,0 0,0.33 0,0.74L0,2.59C0,3 0.33,3.33 0.73,3.33C1.13,3.33 1.45,3 1.45,2.59L1.45,0.74Z " /></g></svg>