<svg xmlns="http://www.w3.org/2000/svg" xmlns:xlink="http://www.w3.org/1999/xlink" width="32" height="41" viewBox="0 0 32 41" fill="none"><g opacity="1" transform="translate(0 0)  rotate(0 16 20.056541207736032)"><path id="路径 1" fill-rule="evenodd" style="fill:#FFFFFF" transform="translate(0 0)  rotate(0 16 20.056541207736032)" opacity="1" d="M0 15.96C0 7.15 7.16 0 16 0C24.84 0 32 7.14 32 15.96C32 18.37 31.46 20.75 30.4 22.92L27.56 26.99L17.4 39.38C17.08 39.84 16.56 40.11 16 40.11C15.44 40.11 14.92 39.84 14.6 39.38L4.42 26.97L1.61 22.94C1.61 22.94 1.6 22.93 1.6 22.92C0.54 20.75 0 18.37 0 15.96Z" /><path id="路径 2" fill-rule="evenodd" style="fill:#F56C6C" transform="translate(6.142857927381556 6.0913130627136525)  rotate(0 9.896736821825858 9.230556351572858)" opacity="1" d="M0.83,18.46L12.1,18.46C10.6,16.81 10.1,14.47 10.8,12.35L10.8,11.77C10.8,11.35 11.09,10.98 11.5,10.89C13.3,8.14 16.93,7.25 19.79,8.87L19.79,8.11C19.79,7.65 19.42,7.28 18.96,7.28L16.19,7.28L16.19,4.51C16.19,4.06 15.82,3.69 15.37,3.69L14.4,3.69L14.4,0.83C14.4,0.61 14.31,0.4 14.15,0.24C14,0.09 13.78,0 13.56,0L6.23,0C6.01,0 5.8,0.09 5.64,0.24C5.49,0.4 5.4,0.61 5.4,0.83L5.4,3.69L4.43,3.69C3.97,3.69 3.6,4.06 3.6,4.52L3.6,7.28L0.83,7.28C0.37,7.28 0,7.65 0,8.11L0,17.63C0,18.09 0.37,18.46 0.83,18.46Z " /><path id="路径 3" fill-rule="evenodd" style="fill:#FFFFFF" transform="translate(9.741494000751118 16.975065767386695)  rotate(0 0.8997565423548044 1.949100552264553)" opacity="1" d="M1.8,0.88C1.79,0.39 1.39,0 0.9,0C0.41,0 0.01,0.39 0,0.88L0,3.02C0.01,3.51 0.41,3.9 0.9,3.9C1.39,3.9 1.79,3.51 1.8,3.02L1.8,0.88Z " /><path id="路径 4" fill-rule="evenodd" style="fill:#FFFFFF" transform="translate(13.34052017016802 16.95676589376444)  rotate(0 0.8995614943291457 1.9674004258868911)" opacity="1" d="M1.8,0.9C1.8,0.4 1.4,0 0.9,0C0.4,0 0,0.4 0,0.9L0,3.04C0,3.53 0.4,3.93 0.9,3.93C1.4,3.93 1.8,3.53 1.8,3.04L1.8,0.9Z " /><path id="路径 5" fill-rule="evenodd" style="fill:#FFC300" transform="translate(17.79970813273394 15.321675587281788)  rotate(0 5.071248667076709 5.058584955800952)" opacity="1" d="M0,5.06C0,7.85 2.27,10.12 5.07,10.12C7.87,10.12 10.14,7.85 10.14,5.06C10.14,2.27 7.87,0 5.07,0C2.27,0 0,2.27 0,5.06Z " /><path id="路径 6" fill-rule="evenodd" style="fill:#FFFFFF" transform="translate(22.095445849798125 22.462451935274203)  rotate(0 0.7755109500114272 0.7735743763178728)" opacity="1" d="M1.55,0.77C1.55,0.35 1.2,0 0.78,0C0.35,0 0,0.35 0,0.77C0,1.2 0.35,1.55 0.78,1.55C1.2,1.55 1.55,1.2 1.55,0.77Z " /><path id="路径 7" fill-rule="evenodd" style="fill:#FFFFFF" transform="translate(22.095445849798125 17.208527765235885)  rotate(0 0.7755109500114317 2.3551604294045463)" opacity="1" d="M1.55,0.77C1.55,0.5 1.4,0.24 1.16,0.1C0.92,-0.03 0.63,-0.03 0.39,0.1C0.15,0.24 0,0.5 0,0.77L0,3.94C0,4.21 0.15,4.47 0.39,4.61C0.63,4.74 0.92,4.74 1.16,4.61C1.4,4.47 1.55,4.21 1.55,3.94L1.55,0.77Z " /></g></svg>