<svg id="图层_1" data-name="图层 1" xmlns="http://www.w3.org/2000/svg" viewBox="0 0 32 40.22"><defs><style>.cls-1{fill:#f56c6c;}.cls-2{fill:#fff;}.cls-3{fill:#ffc300;}</style></defs><path class="cls-1" d="M32,16a15.87,15.87,0,0,1-1.6,7h0l-2.84,4.08L17.4,39.49a1.71,1.71,0,0,1-2.8,0L4.42,27h0L1.61,23v0A16,16,0,1,1,32,16Z"/><path class="cls-2" d="M14.48,19.8A6.22,6.22,0,0,1,15.12,17H9a1,1,0,0,0-1,1v4.47a1,1,0,0,0,1,1h6.71A6.15,6.15,0,0,1,14.48,19.8Zm-4,1.28a.8.8,0,1,1,.79-.8A.8.8,0,0,1,10.47,21.08Zm2.42,0a.8.8,0,1,1,.8-.8A.8.8,0,0,1,12.89,21.08Z"/><path class="cls-2" d="M23,8.58H9a1,1,0,0,0-1,1v4.47a1,1,0,0,0,1,1h7.68a6.19,6.19,0,0,1,7.22-.62,1,1,0,0,0,.08-.38V9.58A1,1,0,0,0,23,8.58Zm-3.88,4a.8.8,0,1,1,.8-.8A.8.8,0,0,1,19.1,12.61Zm2.42,0a.8.8,0,1,1,.8-.8A.8.8,0,0,1,21.52,12.61Z"/><path class="cls-3" d="M20.72,14.72a5.08,5.08,0,1,0,5.07,5.08A5.08,5.08,0,0,0,20.72,14.72Zm0,8.71a.77.77,0,0,1-.78-.77.78.78,0,0,1,.78-.78.77.77,0,0,1,.77.78A.76.76,0,0,1,20.72,23.43Zm.77-2.87a.78.78,0,0,1-1.55,0V17.39a.78.78,0,1,1,1.55,0Z"/></svg>