<svg id="图层_1" data-name="图层 1" xmlns="http://www.w3.org/2000/svg" viewBox="0 0 32 40.22"><defs><style>.cls-1{fill:#f56c6c;}.cls-2{fill:#fff;}.cls-3{fill:#ffc300;}</style></defs><path class="cls-1" d="M32,16a15.87,15.87,0,0,1-1.6,7h0l-2.84,4.08L17.4,39.49a1.71,1.71,0,0,1-2.8,0L4.42,27h0L1.61,23v0A16,16,0,1,1,32,16Z"/><path class="cls-2" d="M14.48,19.8a6.18,6.18,0,0,1,.64-2.75H9a1,1,0,0,0-1,1v4.47a1,1,0,0,0,1,1h6.7A6.2,6.2,0,0,1,14.48,19.8Zm-4,1.28a.8.8,0,1,1,.79-.8A.8.8,0,0,1,10.47,21.08Zm2.42,0a.8.8,0,1,1,.8-.8A.8.8,0,0,1,12.89,21.08Z"/><path class="cls-2" d="M23,8.58H9a1,1,0,0,0-1,1v4.47a1,1,0,0,0,1,1h7.67a6.25,6.25,0,0,1,7.23-.62,1,1,0,0,0,.08-.38V9.58A1,1,0,0,0,23,8.58Zm-3.88,4a.8.8,0,1,1,.8-.8A.8.8,0,0,1,19.1,12.61Zm2.42,0a.8.8,0,1,1,.8-.8A.8.8,0,0,1,21.52,12.61Z"/><path class="cls-3" d="M20.72,14.73a5.07,5.07,0,1,0,5.07,5.07A5.07,5.07,0,0,0,20.72,14.73Zm2.45,5.62a.78.78,0,0,1-.55.22h-3.8a.78.78,0,0,1,0-1.55h3.8a.79.79,0,0,1,.55,1.33Z"/></svg>