<svg id="图层_1" data-name="图层 1" xmlns="http://www.w3.org/2000/svg" viewBox="0 0 32 32"><defs><style>.cls-1{fill:#457dff;}.cls-2{fill:#fff;}</style></defs><circle class="cls-1" cx="16" cy="16" r="16"/><path class="cls-2" d="M23,17H9a1,1,0,0,0-1,1v4.47a1,1,0,0,0,1,1H23a1,1,0,0,0,1-1V18A1,1,0,0,0,23,17Zm-12.51,4a.8.8,0,1,1,.79-.8A.8.8,0,0,1,10.47,21.08Zm2.42,0a.8.8,0,1,1,.8-.8A.8.8,0,0,1,12.89,21.08Z"/><path class="cls-2" d="M8,9.58v4.47a1,1,0,0,0,1,1H23a1,1,0,0,0,1-1V9.58a1,1,0,0,0-1-1H9A1,1,0,0,0,8,9.58Zm12.72,2.23a.8.8,0,1,1,.8.8A.8.8,0,0,1,20.72,11.81Zm-2.42,0a.8.8,0,1,1,.8.8A.8.8,0,0,1,18.3,11.81Z"/></svg>