<svg id="图层_1" data-name="图层 1" xmlns="http://www.w3.org/2000/svg" viewBox="0 0 32 40.22"><defs><style>.cls-1{fill:#f56c6c;}.cls-2{fill:#fff;}.cls-3{fill:#ffc300;}</style></defs><path class="cls-1" d="M32,16a15.87,15.87,0,0,1-1.6,7h0l-2.84,4.08L17.4,39.49a1.71,1.71,0,0,1-2.8,0L4.42,27h0L1.61,23v0A16,16,0,1,1,32,16Z"/><path class="cls-2" d="M24.05,16.14H21.59V13.68a.73.73,0,0,0-.74-.73H20V10.4a.74.74,0,0,0-.73-.74H12.74a.74.74,0,0,0-.73.74V13h-.86a.73.73,0,0,0-.74.73v2.46H8a.73.73,0,0,0-.73.73v8.48a.74.74,0,0,0,.73.74h16.1a.74.74,0,0,0,.73-.74V16.87A.73.73,0,0,0,24.05,16.14ZM12,22a.8.8,0,0,1-.8.8.79.79,0,0,1-.56-.23.8.8,0,0,1-.24-.57v-1.9a.8.8,0,0,1,1.6,0Zm3.19,0a.8.8,0,0,1-.8.8.79.79,0,0,1-.79-.8v-1.9a.79.79,0,0,1,.79-.8.8.8,0,0,1,.8.8Zm3.19,0a.79.79,0,0,1-.79.8.79.79,0,0,1-.8-.8v-1.9a.8.8,0,0,1,.8-.8.79.79,0,0,1,.79.8Zm3.2,0a.8.8,0,0,1-.8.8.79.79,0,0,1-.56-.23A.8.8,0,0,1,20,22v-1.9a.8.8,0,1,1,1.6,0Z"/><path class="cls-3" d="M14.78,15.45l2.89,2.89a1.64,1.64,0,0,1-.21.25,2.07,2.07,0,1,1-2.92-2.93Z"/><path class="cls-3" d="M18.07,17.08l-2-2a2.05,2.05,0,0,1,1.42.6A2.1,2.1,0,0,1,18.07,17.08Z"/><path class="cls-3" d="M11.42,12.09l2,2a4.53,4.53,0,0,0-.81.65,1.38,1.38,0,1,1-1.95-2A8.25,8.25,0,0,1,11.42,12.09Z"/><path class="cls-3" d="M21.76,13.74a1.37,1.37,0,0,1-.4,1l-.09.08a1.39,1.39,0,0,1-1.46.2,1.38,1.38,0,0,1-.4-.28,4.82,4.82,0,0,0-4.89-1.18l-2.09-2.1a7.59,7.59,0,0,1,8.93,1.33A1.36,1.36,0,0,1,21.76,13.74Z"/><path class="cls-3" d="M8,8.63l2,1.95-.24.24-.42.42A1.38,1.38,0,1,1,7.17,9.42l.55-.55Z"/><path class="cls-3" d="M24.7,11.37a1.39,1.39,0,0,1-1.95-.13l-.42-.42a8.94,8.94,0,0,0-7.58-2.54,10.65,10.65,0,0,0-1.36.3,9.11,9.11,0,0,0-2.56,1.26l-2-2a11.46,11.46,0,0,1,2.39-1.43q.6-.26,1.2-.45A11.71,11.71,0,0,1,24.28,8.87l.55.55A1.38,1.38,0,0,1,24.7,11.37Z"/><path class="cls-3" d="M21.51,18.61a1.35,1.35,0,0,1-1.91,0L16,15.06l-1.52-1.52-2.09-2.1L7.71,6.73A1.35,1.35,0,1,1,9.63,4.82l3.76,3.76,2,2L19.81,15l1.7,1.7A1.35,1.35,0,0,1,21.51,18.61Z"/></svg>