<svg id="图层_1" data-name="图层 1" xmlns="http://www.w3.org/2000/svg" viewBox="0 0 33 30"><path d="M.53,16.32,13.37,29.44a3.11,3.11,0,0,0,.28.23l.1.07.2.11.16,0,.19.09a2.16,2.16,0,0,0,.36,0A2.16,2.16,0,0,0,15,30l.15,0,.2-.05.15-.09.16-.09a.91.91,0,0,0,.21-.18.13.13,0,0,0,.07-.06A.46.46,0,0,0,16,29.4a1,1,0,0,0,.15-.21,1.74,1.74,0,0,0,.11-.18c0-.05.05-.09.07-.14l.07-.24v-.1a2.07,2.07,0,0,0,.07-.41V22.49H29.33A3.7,3.7,0,0,0,33,18.75h0v-7.5a3.7,3.7,0,0,0-3.67-3.74H16.5V1.88a2.41,2.41,0,0,0,0-.38V1.4l-.08-.25A.54.54,0,0,1,16.35,1a1,1,0,0,0-.1-.18,1.16,1.16,0,0,0-.16-.21L16,.55,16,.5a1.24,1.24,0,0,0-.22-.18L15.58.23,15.43.14l-.2-.05-.15,0a1.46,1.46,0,0,0-.42,0h-.35l-.17,0L14,.11l-.2.12-.12.06a2.09,2.09,0,0,0-.28.24L.53,13.64a1.9,1.9,0,0,0,0,2.64Zm14.13-5.07H29.33v7.5H14.66a1.85,1.85,0,0,0-1.83,1.87h0v3L4.42,15l8.41-8.59v3a1.85,1.85,0,0,0,1.83,1.87Z"/></svg>